<?xml version="1.0" standalone="no"?>
<!DOCTYPE svg PUBLIC "-//W3C//DTD SVG 20010904//EN"
 "http://www.w3.org/TR/2001/REC-SVG-20010904/DTD/svg10.dtd">
<svg version="1.0" xmlns="http://www.w3.org/2000/svg"
 width="700.000000pt" height="700.000000pt" viewBox="0 0 700.000000 700.000000"
 preserveAspectRatio="xMidYMid meet">
<metadata>
Created by potrace 1.11, written by Peter Selinger 2001-2013
</metadata>
<g transform="translate(0.000000,700.000000) scale(0.100000,-0.100000)"
fill="#000000" stroke="none">
<path d="M3510 6963 c-34 -3 -228 -28 -300 -39 -328 -47 -385 -64 -553 -156
-132 -74 -235 -166 -274 -246 -42 -86 -115 -191 -172 -248 -59 -59 -62 -76
-26 -149 l24 -49 -52 57 c-60 66 -88 74 -171 50 -99 -29 -239 -114 -299 -180
-17 -19 -74 -67 -125 -105 -88 -68 -134 -115 -162 -168 -21 -39 -21 -146 0
-234 11 -48 17 -106 15 -148 -3 -73 -18 -104 -84 -178 -75 -82 -111 -187 -111
-326 0 -129 4 -139 94 -231 102 -105 125 -141 167 -255 l34 -93 0 -215 c0
-235 -1 -228 67 -327 35 -52 85 -161 100 -220 12 -49 26 -60 56 -44 19 10 20
9 10 -27 -6 -20 -17 -50 -25 -66 -18 -35 -101 -144 -155 -203 -169 -187 -176
-347 -29 -654 67 -140 68 -167 4 -286 l-47 -88 -4 -125 c-7 -232 52 -389 234
-620 134 -170 143 -190 154 -339 10 -129 22 -170 64 -214 14 -15 32 -40 40
-55 8 -15 31 -43 52 -63 22 -20 60 -61 87 -92 26 -31 96 -92 156 -137 93 -69
113 -89 141 -141 56 -105 113 -155 220 -195 75 -27 111 -34 215 -39 181 -10
219 -16 320 -50 136 -46 189 -54 335 -52 109 3 133 6 190 29 36 15 96 38 134
52 189 71 472 244 622 381 48 44 121 106 163 138 42 32 87 70 101 85 46 50
116 136 147 182 34 50 45 60 183 172 52 42 107 89 122 105 54 56 57 75 58 394
2 413 9 536 32 624 24 85 34 183 43 395 14 311 14 382 1 534 -8 88 -17 168
-20 176 -3 8 -13 62 -21 120 -8 58 -21 131 -29 162 -8 31 -13 91 -11 132 2 63
8 86 37 143 36 70 43 91 54 159 9 61 35 145 56 183 28 50 139 203 158 218 8 7
12 13 8 13 -4 0 11 35 32 78 61 122 83 223 83 377 0 170 -26 274 -95 395 -73
127 -82 174 -59 300 14 73 19 280 8 330 -34 162 -72 320 -83 341 -28 55 -96
130 -176 192 -99 77 -150 103 -283 147 -55 18 -140 51 -190 72 -49 22 -121 51
-160 65 -99 36 -155 66 -272 145 -56 38 -123 75 -150 83 -26 8 -100 17 -163
19 -168 8 -479 13 -520 9z m-998 -1272 c71 -34 150 -39 593 -41 231 0 438 -3
460 -6 22 -2 58 -6 80 -8 85 -8 152 -57 236 -170 49 -66 137 -143 225 -196
l58 -35 291 -2 290 -2 60 30 c66 32 163 64 172 55 13 -13 8 -76 -20 -237 -27
-154 -31 -203 -34 -429 -4 -202 -1 -282 12 -385 33 -254 65 -370 101 -370 27
0 21 -32 -26 -135 -63 -141 -68 -188 -33 -300 13 -41 26 -105 30 -142 l6 -68
-76 -35 c-42 -20 -80 -43 -85 -53 -5 -9 -10 -44 -11 -77 -2 -33 -6 -64 -10
-70 -4 -5 -16 -41 -26 -80 -22 -87 -40 -128 -81 -182 -18 -23 -38 -59 -44 -80
-7 -21 -16 -42 -20 -48 -4 -5 -13 -28 -20 -50 -18 -62 -86 -212 -99 -220 -4
-2 -29 16 -56 41 -59 53 -159 106 -233 124 -40 9 -59 21 -82 48 -17 20 -30 40
-30 45 0 14 -108 144 -147 176 -70 58 -117 74 -191 68 -77 -7 -158 -32 -187
-58 -11 -9 -56 -35 -100 -57 l-80 -40 -14 22 c-49 74 -116 116 -183 116 -48 0
-125 -27 -313 -110 -11 -5 -36 -12 -55 -15 -106 -20 -301 -68 -343 -86 -74
-31 -218 -119 -254 -155 -36 -35 -41 -33 -66 27 -9 22 -15 75 -16 145 -1 60
-7 129 -13 154 -13 54 -90 212 -147 301 -58 93 -69 125 -72 209 -2 54 2 84 13
105 23 43 45 137 53 220 3 39 8 86 10 105 2 19 7 62 10 95 4 33 13 112 20 175
8 63 17 140 20 170 9 89 16 144 20 160 2 8 7 40 10 70 4 30 11 77 15 105 4 27
7 88 6 135 -2 70 -8 96 -33 150 -55 119 -67 177 -64 315 2 122 9 169 32 239
25 72 58 121 113 164 114 89 163 157 181 253 l7 36 48 -47 c27 -26 69 -57 92
-69z m1138 -3371 c44 -15 220 -127 220 -140 0 -10 -70 -38 -135 -54 -43 -11
-99 -14 -195 -12 -128 3 -143 6 -283 49 -82 26 -169 49 -194 52 -74 9 -137 27
-122 35 8 4 61 10 119 13 103 5 225 37 254 67 17 17 277 10 336 -10z"/>
<path d="M3684 2245 c16 -14 36 -25 44 -25 9 0 2 11 -18 25 -44 32 -64 32 -26
0z"/>
</g>
</svg>
