<svg
   xmlns:dc="http://purl.org/dc/elements/1.1/"
   xmlns:cc="http://creativecommons.org/ns#"
   xmlns:rdf="http://www.w3.org/1999/02/22-rdf-syntax-ns#"
   xmlns:svg="http://www.w3.org/2000/svg"
   xmlns="http://www.w3.org/2000/svg"
   xmlns:sodipodi="http://sodipodi.sourceforge.net/DTD/sodipodi-0.dtd"
   xmlns:inkscape="http://www.inkscape.org/namespaces/inkscape"
   version="1.1"
   id="Capa_1"
   x="0px"
   y="0px"
   viewBox="0 0 512.002 512.002"
   style="enable-background:new 0 0 512.002 512.002;"
   xml:space="preserve"
   sodipodi:docname="cv-btn.svg"
   inkscape:version="0.92.2 (5c3e80d, 2017-08-06)"><metadata
     id="metadata57"><rdf:RDF><cc:Work
         rdf:about=""><dc:format>image/svg+xml</dc:format><dc:type
           rdf:resource="http://purl.org/dc/dcmitype/StillImage" /></cc:Work></rdf:RDF></metadata><defs
     id="defs55" /><sodipodi:namedview
     pagecolor="#ffffff"
     bordercolor="#666666"
     borderopacity="1"
     objecttolerance="10"
     gridtolerance="10"
     guidetolerance="10"
     inkscape:pageopacity="0"
     inkscape:pageshadow="2"
     inkscape:window-width="1920"
     inkscape:window-height="1016"
     id="namedview53"
     showgrid="false"
     inkscape:zoom="0.46093569"
     inkscape:cx="264.67901"
     inkscape:cy="247.32301"
     inkscape:window-x="0"
     inkscape:window-y="27"
     inkscape:window-maximized="1"
     inkscape:current-layer="Capa_1" /><g
     id="g20"><g
       id="g18"><g
         id="g16"><path
           id="rect14"
           style=""
           d="m 341.33401,416 h 21.33301 v 21.333 h -21.33301 z m -192.00102,0 H 320 v 21.333 H 149.33299 Z m 0,-53.33301 h 213.333 v 21.333 h -213.333 z m 0,-53.33398 h 213.333 v 21.333 h -213.333 z M 192,256 h 170.66701 v 21.333 H 192 Z M 432.429,0.002 C 432.357,0.001 432.285,0 432.214,0 h -282.88 c -2.835,-0.016 -5.56,1.097 -7.573,3.093 L 56.427,88.427 C 54.43,90.44 53.317,93.165 53.334,96 v 389.547 c 0.058,14.586 11.868,26.395 26.453,26.453 h 352 c 14.668,0.177 26.701,-11.57 26.878,-26.238 10e-4,-0.072 10e-4,-0.144 0.002,-0.215 V 26.88 C 458.844,12.213 447.097,0.179 432.429,0.002 Z m 4.905,485.545 c 0,2.828 -2.292,5.12 -5.12,5.12 h -352 c -2.818,0.236 -5.293,-1.858 -5.529,-4.675 -0.012,-0.148 -0.018,-0.296 -0.018,-0.445 V 100.374 l 64,-64 v 44.16 c -0.057,2.627 -2.173,4.743 -4.8,4.8 h -27.2 v 21.333 h 32 C 151.019,104.316 159.966,93.534 160,80.96 V 21.333 h 272.213 c 2.828,0 5.12,2.292 5.12,5.12 V 485.547 Z M 394.667,42.667 h -128 c -11.782,0 -21.333,9.551 -21.333,21.333 v 128 c 0,11.782 9.551,21.333 21.333,21.333 h 128 C 406.449,213.333 416,203.782 416,192 V 64 C 416,52.218 406.449,42.667 394.667,42.667 Z M 290.347,192 c 7.707,-22.268 32.007,-34.072 54.275,-26.365 12.366,4.28 22.085,13.999 26.365,26.365 z m 18.986,-74.667 c 0,-11.782 9.551,-21.333 21.333,-21.333 11.783,0 21.334,9.551 21.334,21.333 0,11.782 -9.551,21.333 -21.333,21.333 -11.782,0.001 -21.334,-9.55 -21.334,-21.333 z M 394.667,192 h -1.387 c -4.028,-18.843 -16.331,-34.868 -33.493,-43.627 17.25,-16.053 18.221,-43.051 2.167,-60.301 -16.053,-17.25 -43.051,-18.221 -60.301,-2.167 -17.25,16.053 -18.221,43.051 -2.167,60.301 0.696,0.748 1.419,1.471 2.167,2.167 -17.203,8.734 -29.548,24.763 -33.6,43.627 h -1.387 V 64 h 128 v 128 z" /></g></g></g><g
     id="g22" /><g
     id="g24" /><g
     id="g26" /><g
     id="g28" /><g
     id="g30" /><g
     id="g32" /><g
     id="g34" /><g
     id="g36" /><g
     id="g38" /><g
     id="g40" /><g
     id="g42" /><g
     id="g44" /><g
     id="g46" /><g
     id="g48" /><g
     id="g50" /></svg>
