<?xml version="1.0" encoding="UTF-8" standalone="no"?>
<!-- Created with Inkscape (http://www.inkscape.org/) -->

<svg
   xmlns:dc="http://purl.org/dc/elements/1.1/"
   xmlns:cc="http://creativecommons.org/ns#"
   xmlns:rdf="http://www.w3.org/1999/02/22-rdf-syntax-ns#"
   xmlns:svg="http://www.w3.org/2000/svg"
   xmlns="http://www.w3.org/2000/svg"
   xmlns:sodipodi="http://sodipodi.sourceforge.net/DTD/sodipodi-0.dtd"
   xmlns:inkscape="http://www.inkscape.org/namespaces/inkscape"
   version="1.1"
   id="svg834"
   width="453"
   height="453"
   viewBox="0 0 453 453"
   sodipodi:docname="favicon.svg"
   inkscape:version="0.92.2 (5c3e80d, 2017-08-06)">
  <metadata
     id="metadata840">
    <rdf:RDF>
      <cc:Work
         rdf:about="">
        <dc:format>image/svg+xml</dc:format>
        <dc:type
           rdf:resource="http://purl.org/dc/dcmitype/StillImage" />
        <dc:title></dc:title>
      </cc:Work>
    </rdf:RDF>
  </metadata>
  <defs
     id="defs838" />
  <sodipodi:namedview
     pagecolor="#ffffff"
     bordercolor="#666666"
     borderopacity="1"
     objecttolerance="10"
     gridtolerance="10"
     guidetolerance="10"
     inkscape:pageopacity="0"
     inkscape:pageshadow="2"
     inkscape:window-width="1916"
     inkscape:window-height="1048"
     id="namedview836"
     showgrid="false"
     inkscape:zoom="0.9575"
     inkscape:cx="404.58799"
     inkscape:cy="300"
     inkscape:window-x="0"
     inkscape:window-y="14"
     inkscape:window-maximized="0"
     inkscape:current-layer="svg834" />
  <path
     style="opacity:1;fill:#000000;fill-opacity:1;stroke:#140000;stroke-width:1.19307375;stroke-linecap:round;stroke-miterlimit:4;stroke-dasharray:none;stroke-opacity:1"
     id="path844"
     d="m 125.93912,232.15664 c -1.94237,1.96325 -3.40929,4.21207 -4.72754,6.54427 -1.0836,1.92959 -2.54314,3.59521 -4.21146,5.12924 -1.25656,1.35984 -2.68926,2.60017 -3.76169,4.08751 -0.98029,2.0867 -2.41221,3.94326 -3.39918,6.02741 -0.7332,1.5259 -0.97132,3.16697 -1.05529,4.81312 -0.0975,1.62702 -0.0796,3.25956 -0.0443,4.88829 -0.1023,1.65228 0.33013,3.25804 0.61841,4.8767 0.61566,2.65664 1.34695,5.28877 2.39224,7.83478 1.24158,2.69876 2.74383,5.26946 4.2917,7.83019 1.42776,1.96868 2.25466,4.1784 2.75004,6.47195 0.33795,1.59817 0.39384,3.2302 0.39842,4.85281 0.25392,1.65842 -0.34808,2.97025 -1.12889,4.41969 -0.85159,1.81391 -1.99407,3.51289 -3.10876,5.20493 -1.10191,1.63363 -1.89828,3.37817 -2.39199,5.2328 -0.35749,1.6129 -0.35816,3.2619 -0.36858,4.89941 0.009,1.87992 0.002,3.75997 -0.0265,5.63991 -0.1186,2.39299 -0.025,4.68598 0.7365,6.98431 0.77227,2.18727 1.09107,4.46012 1.71613,6.67768 0.774,2.25825 1.86682,4.40085 3.05552,6.50137 1.09952,2.39593 2.09452,4.70727 3.83467,6.79292 2.01584,2.32639 3.81276,4.78885 5.63243,7.24013 1.9317,2.34623 3.7779,4.75084 5.79466,7.03927 1.75035,1.94677 2.63534,4.3387 3.52731,6.67568 0.79407,2.14609 0.9595,4.41739 1.11125,6.66012 0.0724,1.88395 0.11602,3.77031 0.0775,5.65528 -0.0684,2.11561 0.0556,4.25681 0.88527,6.24751 2.05714,2.94494 4.42312,5.72938 6.7422,8.51588 2.41108,2.44935 4.33669,5.21713 6.47049,7.85487 1.97156,2.59523 4.60593,4.63354 7.17761,6.71713 2.33926,1.49591 4.42771,3.29145 6.94032,4.55046 1.30124,0.74919 2.91514,1.44931 3.81257,2.64519 0.0256,0.0341 0.94395,1.65942 1.02481,1.80232 0.99273,2.27261 1.7126,4.63347 3.10569,6.73951 1.54798,1.85761 3.14286,3.88088 5.52873,4.88161 2.80129,1.3118 5.36464,2.85517 8.3424,3.85584 2.88721,0.80413 5.90688,0.96351 8.90621,1.03237 2.50798,0.0172 5.01614,0.003 7.52419,-0.002 3.27711,-0.20883 6.42893,0.42372 9.48747,1.43156 2.88687,0.82298 5.6905,1.83186 8.40841,3.03553 2.64977,1.21498 5.58674,1.52226 8.50633,1.71012 3.72697,0.0349 7.41633,0.52608 11.12552,0.81593 1.38516,-0.0397 2.73058,-0.0297 4.00708,-0.56519 0.26162,-0.10975 0.48345,-0.2925 0.75313,-0.38495 0.36332,-0.12455 1.76859,-0.34656 2.11237,-0.405 0.37159,-0.11425 0.76566,-0.18069 1.11477,-0.34277 0.3862,-0.17928 0.71318,-0.44758 1.06977,-0.67137 0.39141,-0.21405 0.7663,-0.45494 1.17422,-0.64214 1.41575,-0.6497 3.00944,-0.96059 4.4998,-1.4409 3.17204,-0.85843 6.26792,-1.97785 9.12276,-3.49713 -25.09179,13.63061 -12.22835,6.41042 -6.72713,2.91788 2.5556,-1.76767 5.15205,-3.48956 7.68562,-5.28341 2.6997,-2.20206 5.38259,-4.42982 7.93916,-6.76838 2.22171,-2.52147 4.45978,-4.95564 7.1638,-7.06558 2.21813,-1.54602 4.50775,-3.00914 6.76612,-4.50857 2.02992,-1.77253 3.46324,-4.02604 5.20186,-6.03327 2.43368,-2.27959 4.29599,-4.90346 6.13067,-7.58073 1.90613,-2.67718 3.96431,-5.26401 6.53133,-7.45225 3.25619,-2.29028 6.51366,-4.57305 9.63477,-7.01337 2.41405,-1.78476 4.53835,-3.76067 5.84834,-6.33518 0.81956,-2.14986 0.85394,-4.43761 0.8866,-6.68581 -0.018,-2.07533 -0.0263,-4.15078 -0.0385,-6.22633 -0.0184,-2.54516 0.019,-5.09027 0.0415,-7.63535 0.002,-2.66586 -0.0289,-5.33162 -0.046,-7.99742 -0.027,-2.25032 -0.004,-4.50047 0.007,-6.75073 -0.0269,-2.51311 0.0123,-5.02551 0.0294,-7.53834 0.0472,-2.89069 -0.0234,-5.78137 -0.009,-8.67207 -0.18993,-2.6004 0.48775,-5.0933 1.23497,-7.57495 0.88267,-2.15216 1.489,-4.35907 2.03926,-6.59448 0.76828,-3.11046 1.04272,-6.29526 1.21944,-9.47095 0.11295,-2.49272 0.1311,-4.98726 0.12401,-7.48167 -0.0403,-2.47926 0.009,-4.95823 0.016,-7.43742 0.15324,-2.5236 0.62,-5.01844 0.87316,-7.53454 0.19091,-2.10081 0.21639,-4.20954 0.2338,-6.31611 0.0221,-1.98052 -0.004,-3.96079 -0.0216,-5.94112 0.007,-1.68433 0.024,-3.35581 -0.24403,-5.02476 -0.48453,-2.01691 -0.66251,-4.078 -0.80841,-6.13352 -0.1012,-1.81342 -0.11113,-3.62875 -0.1176,-5.44397 0.0913,-1.67905 -0.4881,-3.29308 -0.77316,-4.93745 -0.54825,-1.93211 -0.99829,-3.87145 -1.25493,-5.85333 -0.2584,-2.12183 -0.172,-4.25928 -0.33854,-6.38503 -0.35849,-2.47482 -1.06233,-4.90426 -1.96548,-7.26019 -0.83372,-2.02011 -1.15358,-4.14521 -1.3262,-6.28168 -0.22009,-1.95535 -0.18385,-3.79252 0.56761,-5.64766 0.91912,-1.713 1.15669,-3.61652 1.84999,-5.39769 0.70799,-1.60592 1.7334,-3.07499 2.4935,-4.65663 0.77883,-1.73665 1.37077,-3.49403 1.67574,-5.34754 0.19721,-1.54638 0.12342,-3.09912 0.45899,-4.62923 0.36622,-1.40681 0.74981,-2.79304 1.24307,-4.16783 0.88647,-1.84017 1.50447,-3.76905 2.29307,-5.64426 1.1519,-1.97177 2.47224,-3.86831 3.80793,-5.74333 1.75361,-2.27121 3.63199,-4.42454 5.14139,-6.84052 1.17143,-1.94855 2.44839,-3.84153 3.58843,-5.80571 1.11859,-2.23139 2.14376,-4.504 3.03995,-6.8165 0.90651,-2.33995 1.14354,-4.8156 1.69728,-7.22876 0.45596,-1.86689 0.76707,-3.75714 0.87454,-5.66618 0.15483,-2.5677 0.15957,-5.14379 0.12481,-7.71477 0.0145,-2.25297 -0.54139,-4.46216 -0.81108,-6.69604 -0.37967,-3.22021 -1.33102,-6.37031 -2.14426,-9.52127 -1.39419,-2.60296 -3.16777,-5.02951 -4.83108,-7.49844 -1.27283,-1.75756 -1.8693,-3.78626 -2.73241,-5.7086 -0.62906,-1.33789 -0.92019,-2.74653 -1.06135,-4.1858 -0.1043,-1.38875 -0.13374,-2.79076 -0.007,-4.17815 0.26872,-1.17415 0.65963,-2.31629 0.8961,-3.49753 0.0327,-1.23773 0.42407,-2.39918 0.78552,-3.57918 0.5748,-1.88683 0.56232,-3.87611 0.61558,-5.81938 0.0384,-2.4918 0.0463,-4.98362 0.0335,-7.47561 0.1534,-2.54976 -0.18647,-5.03546 -0.9243,-7.49234 -0.60557,-2.19249 -1.24015,-4.38409 -1.7543,-6.59599 -0.70694,-2.6255 -1.3198,-5.26209 -1.68175,-7.94506 0.0927,-2.34362 -1.20339,-4.03594 -2.45603,-5.9603 -1.50712,-2.2863 -3.29353,-4.42825 -5.44263,-6.25058 -2.3129,-1.79363 -4.59058,-3.62125 -6.81464,-5.50431 -2.2817,-1.94416 -5.06759,-3.08155 -7.92801,-4.14192 -3.87236,-1.57804 -7.89138,-2.80873 -11.90233,-4.05891 -3.45873,-0.79724 -6.48074,-2.56082 -9.64115,-3.98561 -2.11533,-0.94854 -3.95111,-2.01646 -6.24054,-2.65989 -3.11141,-0.27674 -5.86808,-1.55145 -8.55515,-2.89685 -2.87753,-1.45472 -5.39061,-3.39945 -8.03608,-5.16012 -2.46695,-1.69118 -4.84079,-3.49905 -7.38911,-5.09031 -2.32832,-1.78876 -4.99536,-2.42155 -7.94996,-2.75112 -4.63502,-0.3132 -9.29057,-0.30838 -13.93614,-0.29692 -4.95533,-0.27797 -9.9042,-0.63515 -14.86563,-0.81583 -4.36225,-0.27349 -8.68463,-0.0795 -13.00255,0.50554 -4.4203,0.48557 -8.7475,1.42546 -13.14941,2.01244 -3.48942,0.20317 -6.86274,0.66043 -10.26041,1.39174 -4.29763,0.90747 -8.66711,1.3837 -13.01539,2.02717 -1.90988,0.60004 -3.89117,1.14426 -5.71828,1.94194 -4.65108,2.03059 -17.36777,8.99709 11.05229,-5.73642 -2.26303,1.13875 -3.83002,3.02274 -5.56976,4.70027 -1.99138,1.55461 -3.71227,3.30829 -5.13511,5.30415 -1.41123,2.3259 -1.99744,4.93337 -3.00018,7.40004 -0.98986,2.13609 -2.29862,4.13077 -3.66043,6.08628 -1.72385,2.5399 -4.72114,3.94648 -6.97594,6.04989 -1.59073,1.52009 -1.46081,2.37158 -0.87153,4.24144 0.71321,1.16281 1.39726,2.31708 1.96898,3.54488 0.55321,1.16349 1.2245,2.27174 1.96098,3.35044 0.92152,1.20476 1.18832,2.6771 1.9361,3.9473 0.84679,1.61351 1.62157,3.20947 2.61429,4.75721 1.02433,1.30671 1.62973,2.87427 2.8057,4.07629 1.1116,1.37272 2.46806,2.56287 3.5717,3.9368 1.13879,1.58451 2.88595,2.5171 4.40898,3.73708 1.35952,1.08293 2.95366,1.52168 4.71317,1.68394 1.94448,-0.0546 3.76612,0.54955 5.66783,0.82253 1.47956,0.21466 2.97846,0.25178 4.47361,0.26678 1.58445,0.003 3.16878,0.003 4.75314,0.0245 4.35348,0.0641 8.70688,0.11928 13.06107,0.12742 5.02664,0.0159 10.05298,-0.0559 15.07953,-0.0489 3.98332,-0.004 7.96671,-0.0386 11.94999,-0.0176 4.57575,-0.0101 9.12663,-0.0251 13.68339,0.36178 3.38178,0.47487 6.52846,1.5573 9.19347,3.49537 2.14427,1.16325 3.21949,3.22238 4.8387,4.84456 1.4087,1.34948 2.20642,3.08283 3.3441,4.59786 1.07572,1.82311 2.74119,3.2306 4.12882,4.83166 2.00432,1.77523 4.18966,3.35511 6.44434,4.85806 2.00655,1.4094 3.80902,3.00455 6.25982,3.73325 1.79735,0.41654 3.65489,0.39609 5.49543,0.40271 1.87891,-0.0281 3.75809,-0.0292 5.63721,-0.0309 2.27823,0.002 4.55652,-0.008 6.83469,0.01 2.61273,0.009 5.22551,5.4e-4 7.83824,-0.004 2.25999,0.004 4.51986,-0.01 6.77979,-0.0193 2.29316,0.1503 3.19455,0.009 5.12022,-1.05607 5.19299,-2.36401 12.15653,-6.00085 -12.25053,6.41687 -0.27776,0.14132 0.48372,-0.38016 0.75851,-0.52613 15.41914,-8.19084 9.80497,-6.67087 16.66493,-8.41702 2.27262,-0.68047 4.50938,-1.46132 6.79164,-2.11743 1.78227,-0.44636 3.46187,-0.79377 4.94156,0.39495 0.95786,0.89867 1.15295,2.1099 1.22971,3.30232 0.0627,1.12097 5.8e-4,2.24315 -10e-4,3.3646 -0.0533,1.86861 -0.59106,3.69054 -0.85269,5.54209 -0.16657,1.75926 -0.32972,3.48912 -0.7882,5.20785 -0.44593,1.6533 -0.61506,3.34866 -0.70576,5.04369 -0.18551,2.32169 -1.19953,4.48966 -1.76707,6.74582 -0.42552,1.862 -0.53741,3.76051 -0.59719,5.65565 -0.0782,2.53211 -0.0389,5.06573 -0.0202,7.59837 0.0406,1.78581 0.0534,3.57223 0.0627,5.35834 -0.007,1.80079 -0.0199,3.60154 -0.0267,5.40232 0.0413,1.73248 -0.004,3.4653 0.022,5.19782 0.006,1.76283 -0.0117,3.52566 -0.0196,5.28847 0.13782,3.05037 0.52358,6.09545 1.13057,9.09854 0.5704,2.45731 0.90354,4.94596 1.07464,7.44951 -0.0258,2.33717 0.70618,4.57255 1.34726,6.81092 0.88788,2.14864 1.32575,4.42317 2.26703,6.55039 0,0 -14.83163,7.50072 -14.83163,7.50072 v 0 c -1.02933,-2.18554 -1.43326,-4.53237 -2.36328,-6.75506 -0.63657,-2.32683 -1.55144,-4.6367 -1.53944,-7.06049 -0.10994,-2.45966 -0.34532,-4.91301 -0.85867,-7.33419 -0.59723,-3.07723 -0.93816,-6.17474 -1.42144,-9.26758 -0.008,-1.75683 -0.0252,-3.51366 -0.0195,-5.2705 0.0264,-1.73931 -0.0189,-3.4789 0.0221,-5.21817 -0.007,-1.7921 -0.02,-3.58416 -0.0278,-5.37624 0.007,-1.80207 0.0161,-3.60434 0.0469,-5.40624 0.008,-2.5382 0.0234,-5.07659 -0.0111,-7.61469 0.007,-1.97766 -0.0279,-3.97086 0.45056,-5.91416 0.46497,-2.21699 1.34889,-4.30928 1.88467,-6.49889 0.0242,-1.77623 0.0523,-3.5479 0.49666,-5.28958 0.41843,-1.70041 0.91949,-3.32622 0.89304,-5.09366 0.27866,-1.77436 0.65951,-3.55217 0.85082,-5.32357 0.0181,-1.09655 0.002,-2.19332 0.0234,-3.28991 -0.0146,-0.64079 0.12732,-1.55716 -0.43786,-2.02795 -1.34239,-0.14567 -2.65199,0.34963 -3.91925,0.68839 -2.23897,0.73413 -4.53379,1.31838 -6.73556,2.14535 -5.64923,2.48753 -2.73785,1.23458 12.61855,-6.77637 0.27433,-0.1431 -0.49288,0.36268 -0.76445,0.51001 -5.85623,3.17695 -11.02663,6.4154 -16.98669,8.94473 -1.80969,0.61796 -3.66155,0.51094 -5.57135,0.48455 -2.24022,-0.01 -4.48038,-0.0233 -6.72068,-0.0196 -2.60874,-0.005 -5.21753,-0.0138 -7.82627,-0.003 -2.29526,0.0197 -4.59067,0.0127 -6.88593,0.0325 -1.88917,0.0156 -3.77907,0.0541 -5.66803,0.0106 -1.99036,-0.0504 -3.97343,-0.18542 -5.83817,-0.8802 -2.4056,-1.0296 -4.28627,-2.68416 -6.40472,-4.11278 -2.35445,-1.5897 -4.64637,-3.27429 -6.7203,-5.15912 -1.48582,-1.60259 -3.0992,-3.10426 -4.28943,-4.91773 -1.05866,-1.48201 -1.84609,-3.13038 -3.16374,-4.4535 -1.49506,-1.58942 -2.63373,-3.45939 -4.62627,-4.61316 -2.49025,-1.66491 -5.42077,-2.54501 -8.4932,-2.87796 -4.53133,-0.36466 -9.0737,-0.2764 -13.61899,-0.23299 -3.96535,0.0205 -7.93079,-0.0135 -11.89617,-0.0177 -4.97731,0.007 -9.9544,-0.0648 -14.9318,-0.0478 -4.4876,0.009 -8.97448,0.0661 -13.46127,0.13739 -1.6248,0.0247 -3.25023,0.0433 -4.87476,-0.006 -1.52725,-0.0688 -3.04957,-0.21945 -4.54932,-0.49516 -1.88451,-0.33633 -3.74782,-0.69389 -5.67152,-0.79757 -1.95781,-0.39539 -3.6895,-1.18053 -5.1925,-2.40114 -1.66597,-1.23413 -3.35043,-2.38764 -4.6019,-4.00972 -1.17184,-1.30244 -2.42473,-2.54344 -3.56875,-3.86694 -1.16451,-1.32575 -1.91976,-2.88304 -2.91358,-4.31357 -1.01517,-1.55681 -1.81808,-3.15163 -2.66959,-4.78019 -0.76656,-1.24473 -1.09606,-2.62285 -1.9187,-3.84238 -0.80221,-1.12411 -1.48782,-2.31403 -2.07869,-3.53816 -0.66689,-1.25717 -1.27116,-2.53751 -2.03206,-3.75623 -0.67724,-2.00905 -1.38507,-3.87494 0.22406,-5.71221 0.61672,-0.64178 1.50031,-1.59819 2.19028,-2.14735 1.2423,-0.98877 2.80236,-1.67881 4.01844,-2.68554 0.33076,-0.27382 0.57837,-0.61969 0.86757,-0.92954 1.27189,-1.96255 2.73389,-3.8271 3.77725,-5.90788 1.35476,-2.38197 1.65817,-5.10204 2.93826,-7.5262 1.13911,-2.21049 2.85398,-4.14867 4.9249,-5.71708 1.93857,-1.55863 3.31871,-3.59817 5.39975,-5.01144 7.90734,-4.13435 14.98229,-9.0229 23.88706,-10.80172 4.38248,-0.59834 8.74326,-1.26697 13.06036,-2.18753 3.41112,-0.67276 6.8504,-0.94611 10.31606,-1.28915 4.35919,-0.61468 8.67623,-1.4585 13.06181,-1.92571 4.39998,-0.49444 8.81269,-0.61488 13.23958,-0.31615 4.90038,0.25407 9.78555,0.7106 14.69325,0.83802 4.77763,0.0135 9.57618,-0.13066 14.33537,0.31885 3.13955,0.50625 5.91729,1.46331 8.38799,3.34877 2.51185,1.66821 4.98874,3.38033 7.44022,5.12002 2.52064,1.80132 5.05444,3.60956 7.90854,4.97167 2.67725,1.35242 5.48824,2.14106 8.50511,2.62373 2.20348,0.80334 4.19333,1.93134 6.3155,2.88525 2.97705,1.52704 5.95499,3.0889 9.29134,3.9037 4.06078,1.24935 8.07582,2.60977 12.04552,4.07937 3.04143,1.12489 5.93033,2.47735 8.30571,4.57653 2.24928,1.87875 4.57393,3.67857 6.85506,5.52496 2.17146,1.98711 4.10731,4.17798 5.69721,6.57748 1.38507,2.0767 2.94906,3.96811 2.81459,6.53318 0.27355,2.64136 0.76176,5.25708 1.60971,7.80242 0.52267,2.19001 1.18474,4.34741 1.68777,6.54196 0.73867,2.57266 1.34903,5.15799 1.13854,7.83749 -0.008,2.49762 0.0171,4.99504 -0.004,7.49257 -0.019,2.03457 -0.0192,4.07573 -0.2629,6.10068 -0.3498,1.12945 -0.90087,2.19141 -0.88623,3.37646 -0.11326,1.22619 -0.40094,2.43577 -0.90108,3.58293 -0.42698,1.23016 -0.12175,2.55133 -0.16658,3.82589 0.0784,1.29782 0.23741,2.58144 0.77572,3.80088 0.77016,1.86844 1.29348,3.82812 2.45492,5.54714 1.72872,2.61618 3.49415,5.22127 5.0243,7.93712 0.87502,3.19464 1.57066,6.43719 2.33762,9.65311 0.26323,2.28726 0.8933,4.54333 0.88249,6.84479 -0.0309,2.58221 -0.004,5.16523 -0.009,7.74761 -0.10496,1.99304 -0.23292,3.9718 -0.79957,5.91353 -0.61439,2.46474 -0.90846,4.97593 -1.68795,7.40838 -0.83239,2.38177 -1.8097,4.69048 -2.89011,6.98774 -1.05283,2.03901 -2.29222,3.97239 -3.58743,5.89221 -0.76107,1.23157 -1.44535,2.49167 -2.34562,3.64847 -3.03873,3.90462 1.00154,-1.414 -1.90025,2.16314 -0.29131,0.35912 -0.53214,0.74952 -0.79822,1.12428 -1.3855,1.78234 -2.49271,3.7168 -3.88542,5.4946 -1.03398,1.73906 -1.33134,3.70475 -2.27099,5.46385 -0.52027,1.34837 -1.04862,2.6549 -1.2868,4.07433 -0.5547,1.4614 -0.49212,2.94255 -0.64229,4.47555 -0.21189,1.92528 -0.54668,3.8458 -1.52228,5.59414 -0.42751,1.75139 -1.56734,3.20016 -2.44159,4.79445 -0.96303,1.70829 -1.08298,3.61383 -1.80551,5.40888 -1.0226,1.73123 -1.19466,3.03205 -0.96898,5.00101 0.11824,2.01392 0.33864,4.02676 1.07885,5.945 0.89535,2.4682 1.64238,4.99378 2.13332,7.55224 0.34396,2.11064 0.15772,4.24636 0.38065,6.37086 0.21234,1.96269 0.59659,3.89406 1.26776,5.77558 0.26985,1.71904 0.88696,3.3997 0.88973,5.13979 -0.004,1.79599 -0.0149,3.59225 0.0483,5.38763 0.0865,2.00943 0.23359,4.01735 0.69654,5.99003 0.36029,1.74434 0.56671,3.44407 0.4213,5.22504 -0.0115,1.99082 -0.0277,3.98154 -0.0193,5.97248 -0.0111,2.14676 -0.0238,4.29559 -0.19492,6.43788 -0.23125,2.49597 -0.66521,4.96516 -1.01516,7.44853 0.0112,2.47193 0.0702,4.94357 0.0362,7.41568 -0.01,2.52571 0.0191,5.05346 -0.12725,7.57658 -0.21365,3.23569 -0.57897,6.45941 -1.09029,9.66828 -0.47978,2.26207 -0.87636,4.54336 -1.95244,6.65804 -0.70767,2.38058 -1.68692,4.72309 -1.48823,7.23693 0.0142,2.89356 -0.0565,5.7871 -0.009,8.68064 0.0173,2.50379 0.0565,5.00716 0.0294,7.51124 0.01,2.24831 0.0334,4.49653 0.007,6.74491 -0.0174,2.67955 -0.0488,5.35906 -0.0453,8.03868 0.0245,2.52493 0.0618,5.04963 0.0709,7.57464 0.0135,2.08378 0.0582,4.16708 0.0428,6.25086 -0.0175,2.40212 -0.0453,4.82639 -0.66511,7.17653 -0.95474,2.91384 -3.07051,5.16675 -5.64524,7.08264 -3.08659,2.47216 -6.29081,4.81575 -9.60673,7.03363 -2.79123,1.88377 -4.7482,4.45113 -6.7217,7.01697 -1.88599,2.65329 -3.44166,5.50889 -5.99287,7.71837 -1.83559,2.0013 -3.48948,4.11018 -4.99564,6.32538 -2.14118,1.64634 -4.52494,3.04927 -6.84368,4.4868 -2.76815,2.05832 -5.39202,4.16082 -7.3309,6.93574 -2.42874,2.45746 -5.26382,4.53678 -7.76375,6.93216 -2.49851,1.86809 -5.17636,3.51368 -7.68076,5.37453 -7.01949,4.63061 -14.36721,8.64302 -22.15474,12.27031 -2.9809,1.33599 -6.09723,2.38563 -9.26583,3.29988 -2.77991,0.89492 -5.25142,2.33313 -8.08824,3.04921 -2.3496,0.62184 -4.53987,1.25149 -7.05706,0.8491 -3.70992,-0.35329 -7.41612,-0.68271 -11.14709,-0.78167 -3.08456,-0.27294 -6.11698,-0.81242 -8.88391,-2.1412 -2.69688,-1.11988 -5.46416,-2.05191 -8.28091,-2.89594 -3.0196,-0.84369 -6.04862,-1.20665 -9.2153,-0.98614 -2.52575,0.016 -5.0533,0.0569 -7.57737,-0.0558 -3.10632,-0.17609 -6.21603,-0.51349 -9.15107,-1.50684 -2.95916,-1.14739 -5.68682,-2.66173 -8.56602,-3.95477 -2.44418,-1.40024 -4.27335,-3.4985 -5.94442,-5.60842 -1.37051,-2.14376 -2.28661,-4.45491 -3.26657,-6.76017 -1.11956,-1.98476 -2.00698,-2.68081 -4.2626,-3.75748 -2.4863,-1.44151 -4.74156,-3.18335 -7.05873,-4.83374 -2.6385,-2.16061 -5.23179,-4.36411 -7.27024,-7.02656 -2.15341,-2.62124 -4.16971,-5.32927 -6.47297,-7.84822 -2.36091,-2.91872 -4.80598,-5.7917 -7.04457,-8.77863 -1.06758,-2.11145 -1.39223,-4.42066 -1.31312,-6.73942 -0.0286,-1.86511 0.0421,-3.73041 -0.0248,-5.59544 -0.0726,-2.11525 -0.17154,-4.25117 -0.87369,-6.28786 -0.79746,-2.18407 -1.519,-4.44466 -3.14987,-6.26237 -2.03112,-2.32651 -3.86342,-4.78368 -5.81931,-7.16097 -1.82309,-2.42163 -3.61352,-4.86554 -5.66652,-7.13638 -1.77668,-2.16052 -2.86721,-4.53622 -3.96338,-7.02144 -1.25658,-2.19417 -2.45077,-4.42244 -3.316674,-6.77058 -0.609334,-2.20421 -0.920119,-4.45542 -1.636042,-6.63758 -0.815579,-2.43417 -1.194798,-4.82087 -0.980571,-7.37171 -0.03742,-1.86981 -0.06366,-3.73979 -0.06145,-5.6098 0.0044,-1.72436 -0.03155,-3.45562 0.213353,-5.16904 0.378809,-2.00152 1.115193,-3.88994 2.201964,-5.67134 0.97743,-1.71416 2.19919,-3.30994 3.20905,-5.00805 0.45613,-1.40747 1.61502,-2.34001 1.35499,-3.888 -0.006,-1.55202 0.0248,-3.10901 -0.19422,-4.65224 -0.3684,-2.17018 -1.07573,-4.2292 -2.43664,-6.07524 -1.515497,-2.64824 -2.964017,-5.31936 -4.294201,-8.04968 -1.122788,-2.6157 -1.952097,-5.31412 -2.72061,-8.03048 -0.294686,-1.68849 -0.911705,-3.33569 -0.803501,-5.05467 0.01495,-1.6523 -0.0089,-3.30491 -0.01716,-4.95721 0.108282,-1.79966 0.236792,-3.62231 0.901464,-5.33812 0.95649,-2.11153 2.196904,-4.04682 3.341725,-6.05949 0.651806,-1.85419 2.22961,-3.06249 3.574393,-4.53906 1.50648,-1.58867 3.32562,-2.89226 4.44466,-4.77837 1.34062,-2.30919 2.59578,-4.68408 4.44599,-6.71179 0,0 15.75609,-6.13261 15.75609,-6.13261 z"
     inkscape:connector-curvature="0" />
  <path
     style="opacity:1;fill:#000000;fill-opacity:1;stroke:#140000;stroke-width:1.19307375;stroke-linecap:round;stroke-miterlimit:4;stroke-dasharray:none;stroke-opacity:1"
     id="path846"
     d="m 110.9279,239.50978 c 1.03902,-1.51338 1.51293,-3.22367 2.02082,-4.92108 0.80381,-2.20241 1.07354,-4.51732 1.56383,-6.78491 0.62412,-2.32346 0.81057,-4.7041 0.95648,-7.0825 0.0635,-2.71818 0.58135,-5.40525 0.88419,-8.10663 0.11342,-2.41425 0.40996,-4.79758 0.81067,-7.18513 0.49372,-2.49292 0.47381,-5.02981 0.74109,-7.54177 0.33333,-1.96475 0.70034,-3.92396 0.90649,-5.90373 0.16782,-1.83365 0.15542,-3.67384 0.15328,-5.51185 0.0332,-2.17769 0.47809,-4.35099 0.92816,-6.48783 0.6829,-2.2558 1.0745,-4.5533 1.24749,-6.88325 0.0934,-2.08667 0.60393,-4.13361 0.94177,-6.19488 0.25021,-1.58828 0.28285,-3.19016 0.34304,-4.78999 0.0176,-1.66415 0.006,-3.32806 -0.002,-4.99213 -0.0727,-1.29755 0.17556,-2.61112 -0.31588,-3.85177 -0.9395,-2.10522 -1.7569,-4.26518 -2.85844,-6.30764 -1.08898,-2.22709 -2.17207,-4.48778 -2.97101,-6.81823 -0.60787,-1.72245 -0.70083,-3.53784 -0.79954,-5.32944 -0.0292,-1.55537 -0.0285,-3.1115 -0.012,-4.66707 7.4e-4,-1.52295 -0.009,-3.04673 0.0227,-4.56939 0.22587,-2.16463 0.67081,-4.30315 0.92967,-6.46491 0.15013,-1.94989 0.6408,-3.88587 1.29291,-5.74721 0.66058,-1.91649 1.03409,-3.86946 1.88093,-5.73271 0.76365,-1.95255 2.10957,-3.5526 3.54816,-5.12745 1.24168,-1.37402 2.92034,-2.31978 4.38445,-3.48233 1.39287,-1.02343 2.69712,-2.135 4.10577,-3.14606 1.27024,-0.73396 1.92234,-1.8813 2.61667,-3.03827 0.59386,-1.26039 1.15507,-2.53692 1.83936,-3.76038 0.81108,-1.21172 1.07784,-2.61325 1.2577,-3.99777 0.12149,-1.15931 0.20798,-2.25299 -0.36534,-3.3163 -1.33491,-1.15587 -2.62582,-2.36712 -3.71198,-3.72219 -0.89733,-1.17232 -1.40524,-2.54771 -1.97658,-3.86743 -0.47358,-1.16509 -1.54241,-1.95158 -2.21926,-3.01078 -0.73982,-1.14245 -1.19964,-2.40486 -1.95714,-3.53792 -0.84121,-1.05396 -1.83091,-1.97094 -2.61061,-3.06609 -0.59729,-1.13739 -1.13162,-2.33232 -2.57333,-2.67275 -1.25642,-0.21897 -2.61271,-0.35702 -3.83169,0.025 0.87109,-0.99666 -4.04039,1.75993 -2.7389,1.09126 24.19896,-12.43292 16.31192,-8.94589 11.69008,-5.83976 -1.87145,1.52518 -3.36942,3.36089 -4.86857,5.17717 -1.60871,1.98219 -3.9537,3.28374 -6.06188,4.78412 -2.20915,1.3954 -4.21987,2.96474 -6.08398,4.71978 -1.49491,1.51421 -2.85575,3.1466 -3.80079,4.99178 -0.67964,1.45591 -0.85206,3.01077 -0.94809,4.56985 0.0355,1.25027 -0.11819,2.5205 0.0604,3.76332 0.43497,1.45939 0.75572,2.93926 0.92712,4.44214 0.3879,1.61019 0.84067,3.19071 1.06224,4.83218 0.25837,2.21109 0.19662,4.43482 0.18646,6.65353 0.23425,3.1401 -0.58642,5.47603 -2.50071,8.05509 -1.35299,1.87772 -2.63315,3.77595 -4.31765,5.43001 -1.566714,1.62701 -2.705501,3.55384 -3.684765,5.50921 -0.57622,1.66195 -1.145253,3.33777 -1.623033,5.02772 -0.463708,1.9648 -0.516365,3.98406 -0.568225,5.98517 -0.032,2.30434 -0.01107,4.60894 -6.42e-4,6.91336 -0.05148,1.66249 0.211747,3.18415 1.553457,4.37805 1.557521,1.43709 2.954756,2.99445 4.517348,4.42555 1.44266,1.69465 3.20916,3.10656 4.77733,4.70079 1.09764,1.5217 2.20036,3.06322 3.07074,4.7033 0.68272,1.73274 1.37592,3.45783 2.14217,5.16153 0.58622,1.77656 1.02874,3.50818 1.92087,5.18431 0.93247,1.72677 1.34513,3.5876 1.57855,5.48093 0.1505,1.55965 0.17403,3.12543 0.17483,4.68999 -0.01,1.39972 -0.004,2.79944 -0.0114,4.19917 -0.0152,1.70356 -0.0516,3.40714 -0.0271,5.11071 -0.0704,1.50673 -0.57716,2.95105 -0.86743,4.42916 -0.26694,1.70987 -0.33543,3.44429 -0.231,5.16692 0.30932,2.55298 1.84252,4.86084 3.21776,7.06696 1.60616,1.91152 2.98913,3.82312 4.0785,6.01412 0.89817,1.80284 1.27218,3.78084 2.26763,5.5441 0.82222,1.27727 1.46437,2.59372 1.75798,4.04864 0.30142,1.23296 0.67907,2.44715 0.98523,3.67943 0,0 -15.11655,7.29687 -15.11655,7.29687 v 0 c -0.24014,-1.26462 -0.57749,-2.5094 -1.02232,-3.72902 -0.1889,-1.31503 -0.71515,-2.50821 -1.44916,-3.65825 -0.99219,-1.8046 -1.41744,-3.76721 -2.22979,-5.63503 -1.0807,-2.13797 -2.4247,-4.03386 -3.97991,-5.9233 -1.44109,-2.39215 -3.044411,-4.89372 -3.582034,-7.58365 -0.307385,-1.80803 -0.208725,-3.63698 -0.07894,-5.46007 0.187534,-1.44931 0.572178,-2.8533 1.025977,-4.25084 0.02436,-1.6972 -0.0114,-3.39438 -0.02159,-5.09161 -9.85e-4,-1.40066 0.01605,-2.80125 0.01838,-4.20188 0.0066,-1.52572 0.03886,-3.05318 -0.05791,-4.57736 -0.146524,-1.72301 -0.418967,-3.43301 -1.268736,-5.0055 -0.927205,-1.70877 -1.497867,-3.42123 -1.983685,-5.26856 -0.756201,-1.67741 -1.44894,-3.37076 -2.107134,-5.08221 -0.782796,-1.52437 -1.820044,-2.9384 -2.816226,-4.35376 -1.488754,-1.60705 -3.266216,-2.96832 -4.687356,-4.63254 -1.571161,-1.4451 -2.994293,-3.01109 -4.589724,-4.43685 -1.492374,-1.54274 -2.275115,-3.33068 -2.117863,-5.41091 0.0022,-2.31559 0.0044,-4.63119 0.0155,-6.94676 0.01,-2.07639 -0.01539,-4.16245 0.329407,-6.22176 0.36528,-1.81042 1.149261,-3.48568 1.532864,-5.29047 0.878235,-2.1119 2.143583,-4.07227 3.447184,-5.98916 0.991853,-1.01963 0.463907,-0.53596 1.584757,-1.4502 1.172878,-1.14541 1.92578,-2.59488 2.922992,-3.85393 2.113822,-2.58962 3.138548,-3.78426 2.939987,-7.20039 -0.02823,-2.148 -0.0651,-4.29933 -0.231666,-6.44265 -0.19307,-1.65138 -0.593702,-3.25114 -1.10855,-4.84514 -0.134621,-1.44854 -0.359854,-2.89125 -0.875378,-4.27495 -0.378488,-1.34096 -0.207872,-2.7304 -0.213962,-4.10646 0.0289,-1.71021 0.144686,-3.4446 0.768525,-5.07415 0.772001,-2.08284 2.0823,-3.80796 3.55531,-5.54238 1.873144,-1.78886 3.677167,-3.65582 6.055631,-4.91897 2.02533,-1.53835 4.25783,-2.83225 6.20437,-4.4367 1.53787,-1.82253 2.94016,-3.72833 4.67193,-5.41313 0.6805,-0.66989 0.84855,-0.93259 1.74089,-1.40607 5.22152,-2.77054 11.85625,-7.88811 18.78251,-8.95053 1.52524,-0.009 3.05517,0.068 4.44381,0.70358 1.48945,0.82387 2.35109,2.02301 3.10961,3.42421 0.74776,1.12717 1.8427,2.00086 2.63358,3.10396 0.72832,1.15744 1.18777,2.41379 1.96795,3.54452 0.71313,1.12308 1.8607,1.98569 2.33571,3.24386 0.47672,1.20676 0.99302,2.42281 1.69191,3.53433 1.14864,1.42585 2.62494,2.56359 3.89345,3.88999 0.79003,1.31116 1.0161,2.60878 0.79809,4.09324 -0.0843,1.56755 -0.3663,3.10313 -0.92469,4.59454 -0.79245,1.14161 -1.38409,2.36484 -1.91455,3.61777 -0.52385,1.3536 -1.28645,2.6717 -2.31395,3.7638 -0.71522,0.48747 -1.52259,0.942 -2.19768,1.46987 -0.47148,0.36866 -0.79099,0.8813 -1.27459,1.23691 -0.1932,0.14206 -0.43796,0.21463 -0.65692,0.32195 -1.44645,1.2097 -2.94963,2.30963 -4.56469,3.31643 -1.399,1.48961 -2.99562,2.85303 -3.71117,4.74932 -1.02812,1.78916 -1.50143,3.61281 -1.95947,5.57633 -0.68683,1.76881 -1.25314,3.57267 -1.47001,5.44117 -0.20652,2.1207 -0.62937,4.20803 -0.96518,6.31382 0.0297,1.52086 0.0166,3.04304 0.002,4.56407 0.002,1.54111 -0.0301,3.08193 -0.01,4.62308 0.007,1.68029 0.0695,3.37647 0.52138,5.01485 0.68351,2.27346 1.69805,4.46648 2.77642,6.60606 1.14671,2.0598 1.93684,4.25438 3.03369,6.3366 0.71874,1.4318 0.72924,2.82956 0.6283,4.38645 -0.001,1.67393 2.8e-4,3.34789 -0.01,5.02181 0.0169,1.65781 -0.019,3.32567 -0.27029,4.96997 -0.2858,2.05287 -0.89518,4.06271 -1.0234,6.13009 -0.22782,2.38138 -0.39379,4.78473 -1.15603,7.08861 -0.57729,1.99206 -0.86182,4.10378 -1.01193,6.15065 -0.0121,1.87453 -0.0266,3.75011 -0.10872,5.62332 -0.14423,2.02653 -0.51941,4.01936 -0.95174,6.01142 -0.46537,2.5013 -0.24988,5.0687 -0.73489,7.57439 -0.39653,2.36849 -0.78717,4.7185 -0.85091,7.11897 -0.30088,2.67655 -0.86807,5.33459 -0.93747,8.02518 -0.0644,2.44621 -0.22108,4.91126 -0.80298,7.30696 -0.58777,2.27794 -0.80965,4.60177 -1.42158,6.87535 -0.65825,1.68362 -0.85361,3.51692 -1.80746,5.11107 0,0 -15.64951,6.39495 -15.64951,6.39495 z"
     inkscape:connector-curvature="0" />
  <path
     style="opacity:1;fill:#000000;fill-opacity:1;stroke:#140000;stroke-width:1.19307375;stroke-linecap:round;stroke-miterlimit:4;stroke-dasharray:none;stroke-opacity:1"
     id="path848"
     d="m 126.11945,234.96351 c -0.13197,2.23106 -0.0662,4.46585 -0.0555,6.69867 -0.0207,1.67584 0.39305,3.32685 1.048,4.88656 0.91504,1.60232 1.92736,3.15447 2.95269,4.70112 0.76069,1.28196 1.3952,2.54212 2.34261,3.71577 0.85962,1.27688 1.47523,2.67654 2.07769,4.06522 0.52304,1.31496 1.18957,2.57579 1.83394,3.84398 0.72845,1.80259 1.96111,3.37245 2.75834,5.1427 0.51587,1.42914 0.87635,2.89486 1.32028,4.34676 0.47114,1.35469 0.63181,2.75765 0.695,4.1686 0.059,1.74209 0.0456,3.4848 0.0147,5.2272 -0.0124,2.31451 -0.0303,4.62898 -0.0401,6.94347 0.45991,2.46749 1.89556,4.63863 3.20199,6.80441 1.01425,1.17246 1.48474,2.71063 2.59778,3.80337 1.10497,1.23943 1.77774,2.7304 3.02024,3.87227 1.53922,0.77699 3.28486,1.33248 4.9955,1.76244 1.55787,0.78449 2.88112,1.74916 4.5893,2.26529 1.72121,0.13467 3.12916,1.06468 4.70152,1.63039 0.69819,0.34778 1.16214,0.29291 1.86533,0.0963 0,0 -13.9087,9.14398 -13.9087,9.14398 v 0 c -0.75144,-0.15008 -1.46695,-0.37547 -2.16154,-0.68079 -1.55102,-0.62415 -3.09785,-1.1681 -4.73534,-1.57448 -1.5572,-0.65018 -2.86396,-1.65877 -4.47406,-2.19738 -1.91823,-0.61035 -3.95123,-1.16865 -5.47709,-2.4318 -1.18772,-1.21374 -1.99823,-2.64148 -3.10102,-3.91079 -1.11706,-1.26555 -1.71824,-2.80061 -2.70617,-4.15063 -1.30891,-2.44145 -2.78034,-4.82327 -3.52383,-7.47684 -0.008,-2.30489 -0.0215,-4.60973 -0.0256,-6.91466 -0.0261,-1.71267 -0.0161,-3.42562 -0.0546,-5.13809 -0.0554,-1.29655 -0.13117,-2.59951 -0.51047,-3.85866 -0.42275,-1.40874 -0.88033,-2.78756 -1.20626,-4.21604 -0.72892,-1.7582 -1.91335,-3.31996 -2.72578,-5.04769 -0.6789,-1.29221 -1.40292,-2.57436 -1.9115,-3.93034 -0.5222,-1.26628 -1.10721,-2.53094 -1.84771,-3.70298 -1.00585,-1.21756 -1.66683,-2.50587 -2.36519,-3.88041 -1.06762,-1.63117 -2.17031,-3.24325 -3.1295,-4.92961 -0.69972,-1.72302 -1.34725,-3.54162 -1.2864,-5.39463 0.0111,-2.21576 0.0778,-4.4337 -0.0555,-6.64762 0,0 15.28684,-7.03504 15.28684,-7.03504 z"
     inkscape:connector-curvature="0" />
  <path
     style="opacity:1;fill:#000000;fill-opacity:1;stroke:#140000;stroke-width:1.19307375;stroke-linecap:round;stroke-miterlimit:4;stroke-dasharray:none;stroke-opacity:1"
     id="path850"
     d="m 144.36589,307.59002 c 0.11396,-2.18747 -0.0284,-4.36409 0.30319,-6.53812 0.36697,-1.50169 0.56233,-3.02909 0.85955,-4.54043 0.33223,-1.63682 1.11605,-3.05996 2.54898,-4.10994 5.4837,-3.51606 1.48493,-0.98264 16.11177,-8.44595 0.45222,-0.23075 1.86143,-0.83067 1.41089,-0.59727 -14.21489,7.36397 -18.29597,10.19898 -13.34619,6.80881 5.74233,-3.85074 11.69969,-8.22941 18.86837,-8.8382 1.22696,-0.59295 2.63368,-0.84398 4.01051,-0.95733 0.20836,-0.0179 0.42494,0.002 0.62506,-0.0536 0.1974,-0.0546 0.36187,-0.17958 0.54281,-0.26937 0.23255,-0.0681 0.46138,-0.14763 0.69765,-0.20437 0.89886,-0.21585 1.6585,-0.2513 2.50524,-0.62349 1.60357,-0.62778 3.31655,-0.81543 5.03622,-0.96271 2.04635,-0.45392 4.05189,-0.80693 5.9095,-1.74672 1.79229,-0.75647 3.78057,-1.113 5.38434,-2.18773 1.35795,-0.93212 3.16449,-0.86301 4.61566,-1.54032 5.94195,-3.8114 -17.67547,9.14326 -13.28798,6.80843 4.52328,-2.40709 11.08279,-7.21931 17.41426,-8.59413 0.79658,-0.80429 1.98501,-1.03403 3.13154,-1.10475 1.51474,0.0279 3.06123,-0.25197 4.50812,0.198 1.83122,0.32396 3.28155,1.30523 4.68863,2.3583 1.40645,1.19418 2.55024,2.50439 3.47257,4.03018 0.87073,1.17869 1.19347,2.57073 1.78092,3.86171 0.63697,1.56089 0.85137,3.10148 0.58714,4.73966 -0.25694,1.0731 -0.47263,2.15266 -0.55985,3.2484 0.003,1.46511 -0.37897,2.87785 -0.73502,4.29659 -0.29149,1.45947 -0.3442,2.89738 -1.04981,4.25266 -5.13172,5.36808 -12.65056,8.68354 -20.28044,9.19169 -2.00456,0.097 -4.0117,0.0371 -6.01796,0.044 -1.72034,0.0118 -3.44076,-0.0123 -5.16108,-0.003 -1.65592,-0.13274 -3.09531,0.14767 -4.5813,0.79767 -1.78186,0.82801 -3.81776,1.05991 -5.79368,1.19469 -2.60875,0.38604 -4.97929,1.23589 -7.3793,2.22066 -2.31692,0.85668 -0.68689,0.1832 -2.76384,1.21557 -0.39619,0.19692 -1.59475,0.77046 -1.20305,0.56634 23.35023,-12.16829 16.70186,-8.95315 11.86627,-5.98271 -1.48819,1.1864 -3.1596,2.14811 -4.78916,3.16198 -1.6521,1.36709 -3.2382,2.8057 -4.66207,4.36978 -1.0033,0.99217 -1.75888,2.15222 -2.58748,3.26048 0,0 -15.61687,6.21037 -15.61687,6.21037 v 0 c 0.7905,-1.1981 1.6818,-2.33592 2.54411,-3.49174 1.51838,-1.50621 2.85716,-3.11928 4.48257,-4.54379 1.38221,-1.31882 3.28532,-2.00555 4.79204,-3.20175 0.84717,-0.74921 0.61881,-0.63658 1.6718,-1.19406 6.41907,-3.39845 12.61643,-7.27836 19.5288,-9.83418 2.52863,-0.9129 5.08137,-1.70884 7.80994,-1.9627 1.92904,-0.27544 3.76818,-0.7801 5.56055,-1.48325 1.65117,-0.38437 3.27344,-0.48547 4.9777,-0.39224 1.7059,0.0165 3.41208,0.005 5.11792,0.0313 1.97224,0.0152 3.9514,0.006 5.91372,-0.19188 0.97096,-0.13317 1.94139,-0.2585 2.86847,-0.56855 0.31475,-0.10527 1.20672,-0.52808 0.91825,-0.37312 -13.27732,7.13225 -18.72713,9.10922 -12.99938,6.99155 1.4606,-0.68836 1.19333,-2.25258 1.43018,-3.55157 0.28437,-1.36243 0.86453,-2.67554 0.76791,-4.07412 0.0803,-1.16061 0.17605,-2.31805 0.49122,-3.45071 0.4143,-1.38173 0.52862,-2.56812 -0.11006,-3.93779 -0.55248,-1.23938 -0.89527,-2.54635 -1.64683,-3.70677 -0.84662,-1.32225 -1.77566,-2.53573 -3.10355,-3.51894 -1.30952,-0.86705 -2.63919,-1.55432 -4.28966,-1.71245 -1.38458,0.0195 -2.79435,6.4e-4 -4.14375,0.31734 -1.04135,0.35617 -1.93773,0.97944 -3.0173,1.21392 -0.39184,0.13994 -3.22004,1.54965 -1.79619,0.80243 29.02049,-15.2295 7.44305,-3.59544 -2.2539,1.03026 -1.57191,0.35014 -3.03438,0.91964 -4.40209,1.71135 -1.81353,0.69492 -3.66571,1.29719 -5.44927,2.05532 -2.03645,0.66711 -4.15725,1.10945 -6.29551,1.41457 -1.6518,0.21938 -3.23212,0.67714 -4.79331,1.20536 -1.54321,0.30538 -3.01762,0.82849 -4.59304,0.97101 -1.35667,0.28947 -2.66029,0.76212 -4.03568,0.95384 -0.61196,0.11729 -1.21426,0.26315 -1.78482,0.50251 -0.22271,0.0934 -0.86255,0.42416 -0.65014,0.31288 13.97704,-7.32186 18.90045,-9.32722 13.22797,-6.98637 -5.427,3.518 -1.251,0.83808 -15.93994,8.56268 -0.44375,0.23336 -1.83611,0.82848 -1.39282,0.59441 16.3572,-8.63728 18.34481,-9.72879 13.14494,-6.88714 -1.49724,0.82453 -2.60959,1.38786 -3.05114,3.06599 -0.44578,1.47485 -0.39796,3.0409 -0.92163,4.50931 -0.53789,2.05874 -0.50236,4.13916 -0.3553,6.24604 0,0 -15.28686,7.03505 -15.28686,7.03505 z"
     inkscape:connector-curvature="0" />
  <path
     style="opacity:1;fill:#000000;fill-opacity:1;stroke:#140000;stroke-width:1.19307375;stroke-linecap:round;stroke-miterlimit:4;stroke-dasharray:none;stroke-opacity:1"
     id="path852"
     d="m 184.14908,304.2875 c 1.484,1.82227 3.46481,3.37707 5.70658,4.38994 1.98075,0.69022 3.98409,1.31652 6.08106,1.65179 2.49854,0.14972 4.92305,0.71844 7.39973,1.02725 3.26344,1.18424 6.55589,2.28811 9.8828,3.31816 2.1376,0.39767 4.04612,1.38634 6.12775,1.92566 1.34012,0.31368 2.74901,0.27363 4.12404,0.28137 2.00271,0.0152 4.00517,0.008 6.00792,0.005 2.23185,-0.002 4.46371,-9.1e-4 6.69555,-4.5e-4 2.4147,0.0215 4.8292,0.002 7.24392,-0.003 1.86235,0.0719 3.44863,-0.76847 4.93867,-1.68304 -24.24094,14.49869 -15.47116,8.305 -10.25126,4.77908 1.319,-1.06993 2.62384,-2.18785 3.68827,-3.47289 0,0 15.77724,-6.02146 15.77724,-6.02146 v 0 c -1.278,1.1418 -2.2246,2.61406 -3.62725,3.68325 -1.52833,1.38744 0.22343,-0.11341 -1.4385,1.04693 -5.85059,4.08483 -5.28735,7.21123 -17.43097,9.6907 -1.74029,0.7492 -3.48811,1.19742 -5.44571,1.02624 -2.41167,-0.005 -4.82311,-0.0248 -7.23475,-0.002 -2.23666,0.002 -4.47334,0.006 -6.70999,0.014 -2.02972,0.006 -4.05972,0.0237 -6.0892,-8.7e-4 -1.5092,-0.0547 -3.02708,-0.12536 -4.43795,-0.6685 -1.96555,-0.71347 -3.89782,-1.49302 -5.9251,-2.06319 -3.23763,-1.07228 -6.45171,-2.27388 -9.80147,-3.01686 -2.4948,-0.37579 -4.9796,-0.78703 -7.48812,-1.07681 -2.18078,-0.47782 -4.34796,-1.11044 -6.3346,-2.06299 -2.27429,-1.27032 -4.28059,-2.88527 -6.0662,-4.68186 0,0 14.60754,-8.08499 14.60754,-8.08499 z"
     inkscape:connector-curvature="0" />
  <path
     style="opacity:1;fill:#000000;fill-opacity:1;stroke:#140000;stroke-width:1.19307375;stroke-linecap:round;stroke-miterlimit:4;stroke-dasharray:none;stroke-opacity:1"
     id="path854"
     d="m 233.59263,273.74349 c -0.93654,2.80814 -1.95965,5.59276 -2.95241,8.38543 -0.86435,2.30207 -1.30751,4.68835 -1.54148,7.10122 -0.15907,1.23028 -0.22009,2.24051 0.61586,3.24439 0,0 -14.71686,7.87301 -14.71686,7.87301 v 0 c -1.07947,-1.34143 -1.44274,-2.57877 -1.16413,-4.23762 0.22791,-2.54024 0.68395,-5.06575 1.55632,-7.49589 0.96649,-2.69353 1.8915,-5.39261 2.76844,-8.11086 0,0 15.43426,-6.75968 15.43426,-6.75968 z"
     inkscape:connector-curvature="0" />
  <path
     style="opacity:1;fill:#000000;fill-opacity:1;stroke:#140000;stroke-width:1.19307375;stroke-linecap:round;stroke-miterlimit:4;stroke-dasharray:none;stroke-opacity:1"
     id="path856"
     d="m 235.75559,271.46356 c 2.14203,-0.63843 4.16916,-1.51715 6.295,-2.19944 1.52727,-0.42187 3.11153,-0.46597 4.69468,-0.4755 1.56431,0.0601 3.17119,-0.17486 4.67205,0.26004 1.97347,0.60429 3.83626,1.81522 5.31903,3.13449 2.1959,1.62413 4.06803,3.52125 5.89627,5.46945 1.41648,1.68074 2.73559,3.41981 3.98053,5.20592 0.8703,1.62278 1.82397,3.19318 2.81723,4.75625 1.0295,1.2399 2.08124,2.39242 3.75224,2.88047 1.85374,0.26397 3.20325,0.19997 4.94531,0.94386 1.7108,0.69945 3.48878,1.22361 5.05002,2.18176 1.76774,0.79658 3.24447,1.92494 4.56549,3.23856 1.43974,1.3659 3.13969,2.50107 4.47411,3.95285 1.03829,1.10554 1.78805,2.28913 2.2853,3.66224 0.36635,1.22354 0.44026,2.48643 0.44955,3.74664 -0.008,1.36627 0.008,2.7323 -0.0124,4.09853 0.007,1.4814 0.0659,2.96243 -0.256,4.4204 -0.35685,1.28124 -0.64824,2.57662 -0.78116,3.89306 0.01,0.82285 -0.22974,1.58053 -0.50443,2.35359 0,0 -15.56875,6.56618 -15.56875,6.56618 v 0 c 0.29053,-0.6607 0.73027,-1.28474 0.70195,-1.99993 0.13276,-1.3878 0.32624,-2.76451 0.72381,-4.1146 0.42893,-1.39895 0.4925,-2.6395 0.41459,-4.0971 -0.01,-1.35766 0.0275,-2.71492 0.01,-4.0725 -0.0192,-1.12362 6.7e-4,-2.25653 -0.23556,-3.36502 -0.3432,-1.20294 -1.04027,-2.16094 -1.89027,-3.13326 -1.32814,-1.40996 -2.96232,-2.55607 -4.36318,-3.90575 -1.28912,-1.17128 -2.79624,-2.05788 -4.38503,-2.86731 -1.55553,-0.76209 -3.21347,-1.32619 -4.84331,-1.94342 -1.66777,-0.3961 -3.4503,-0.31409 -5.03892,-1.00705 -1.80016,-0.89417 -3.12386,-2.24924 -4.33227,-3.73537 -0.90558,-1.57362 -1.90134,-3.09966 -2.73292,-4.70811 -1.15769,-1.73642 -2.44281,-3.40745 -3.75089,-5.05245 -1.80209,-1.89156 -3.65973,-3.714 -5.8198,-5.28431 -1.43128,-1.06422 -3.05417,-2.08484 -4.91822,-2.35479 -1.4859,-0.0269 -2.97248,-0.0329 -4.45745,0.0305 -1.48051,0.0991 -2.93903,0.30145 -4.31958,0.82512 -2.1154,0.72742 -4.19773,1.53463 -6.31156,2.26659 0,0 13.4751,-9.57056 13.4751,-9.57056 z"
     inkscape:connector-curvature="0" />
  <path
     style="opacity:1;fill:#000000;fill-opacity:1;stroke:#140000;stroke-width:1.19307375;stroke-linecap:round;stroke-miterlimit:4;stroke-dasharray:none;stroke-opacity:1"
     id="path858"
     d="m 329.63184,241.22983 c -0.18498,2.66879 -0.0185,5.34369 -0.19986,8.01097 -0.61593,2.82849 -1.88227,5.48549 -2.60821,8.29867 -0.46475,2.49537 -0.80863,4.96172 -1.90594,7.30527 -1.15206,2.01639 -2.75518,3.7822 -4.18461,5.64267 -1.39653,1.55452 -2.012,3.4109 -2.57925,5.30215 -0.66313,1.72538 -1.53064,3.36666 -2.03546,5.1412 -0.30809,1.64626 -0.74671,3.29357 -1.69966,4.73402 -1.11596,1.62294 -1.72422,3.49084 -2.41335,5.28853 -0.66076,1.60312 -1.47236,3.14551 -2.32353,4.67157 -0.9985,1.71681 -1.79287,3.51672 -2.87928,5.19149 -1.10048,1.44039 -1.96875,2.94917 -2.36074,4.66606 -0.42535,1.77973 -1.09301,3.50104 -1.69117,5.23681 -0.58529,1.7496 -0.63591,3.58466 -1.19188,5.33672 -0.82171,1.39402 -1.30341,2.88914 -1.79851,4.39193 -0.0969,0.21726 -0.19372,0.43452 -0.29057,0.65178 0,0 -15.54109,6.51351 -15.54109,6.51351 v 0 c 0.0901,-0.22102 0.18019,-0.44205 0.27029,-0.66307 0.82252,-1.39857 0.83517,-3.1013 1.83766,-4.44358 1.05836,-1.55559 0.73633,-3.46049 1.31904,-5.18196 0.49392,-1.7152 1.15477,-3.38018 1.70214,-5.07984 0.34998,-1.90001 0.8707,-3.651 2.15272,-5.23832 1.22882,-1.56916 2.05123,-3.30949 2.89832,-5.06696 0.91372,-1.43909 1.62194,-2.95802 2.41697,-4.45084 0.74948,-1.87753 1.49277,-3.75112 2.25348,-5.62308 0.33975,-0.43382 0.84205,-0.76719 1.10694,-1.24167 0.43537,-0.77983 0.54377,-2.11962 0.84377,-2.96708 0.33777,-1.84248 1.0491,-3.60244 2.04309,-5.24231 0.59024,-2.00126 0.99262,-4.07848 2.34969,-5.81184 0.69719,-0.8568 1.28635,-1.77184 1.96823,-2.63423 1.99927,-2.52859 -0.5092,0.83529 1.64335,-1.72464 0.28611,-0.34026 0.50734,-0.72128 0.76101,-1.08192 1.36198,-2.15936 1.70654,-4.55064 2.03573,-6.99224 0.7605,-2.75061 1.67339,-5.44577 2.73706,-8.10982 0.36508,-2.58114 0.15694,-5.19968 0.0767,-7.79491 0,0 15.28684,-7.03504 15.28684,-7.03504 z"
     inkscape:connector-curvature="0" />
  <path
     style="opacity:1;fill:#000000;fill-opacity:1;stroke:#140000;stroke-width:1.19307375;stroke-linecap:round;stroke-miterlimit:4;stroke-dasharray:none;stroke-opacity:1"
     id="path860"
     d="m 259.08454,308.49805 c 1.90608,0.23278 3.88564,-0.14989 5.78514,0.0639 1.02954,0.11585 2.42012,0.6159 3.36949,0.91801 3.52876,1.27976 6.96878,2.72206 10.30874,4.36468 3.05542,1.35227 5.96923,2.95031 8.88558,4.52917 2.83034,1.62728 5.63086,3.38566 7.93939,5.59354 0,0 -14.40977,7.92671 -14.40977,7.92671 v 0 c -2.21877,-2.11037 -4.87059,-3.7815 -7.64007,-5.25909 -2.9397,-1.53468 -5.91124,-3.01567 -8.91277,-4.44981 -3.25389,-1.58851 -6.57235,-3.06125 -10.08977,-4.12124 -3.00296,-0.67172 -6.03712,-0.58589 -9.11614,-0.45748 0,0 13.88018,-9.10834 13.88018,-9.10834 z"
     inkscape:connector-curvature="0" />
  <path
     style="opacity:1;fill:#000000;fill-opacity:1;stroke:#140000;stroke-width:1.19307375;stroke-linecap:round;stroke-miterlimit:4;stroke-dasharray:none;stroke-opacity:1"
     id="path862"
     d="m 227.86388,291.78787 c 3.05377,0.0875 6.10997,0.0799 9.16493,0.0713 3.00311,-0.0166 6.00621,-0.0106 9.00936,-0.0203 2.91988,-0.0152 4.86422,1.65647 7.22413,2.92408 2.25231,1.22669 4.34608,2.66409 6.39604,4.15565 2.43497,1.53115 4.83003,3.21158 6.77949,5.23985 1.77671,1.8652 3.00178,4.04595 4.04827,6.29728 0.57427,1.5861 1.2833,3.09463 2.10412,4.58721 1.1485,1.22447 2.8088,1.89353 4.47287,2.36537 1.85142,0.60806 3.67135,1.13399 5.63489,1.37183 1.55448,0.15446 3.11956,0.17188 4.68129,0.20379 0,0 -13.7781,8.98972 -13.7781,8.98972 v 0 c -1.62638,-0.0465 -3.26003,-0.10224 -4.86768,-0.347 -1.99911,-0.36123 -3.90302,-0.96839 -5.81356,-1.60388 -2.02018,-0.75048 -3.90803,-1.67515 -5.18106,-3.34032 -0.85408,-1.5237 -1.64155,-3.04814 -2.11962,-4.71025 -0.93868,-2.10109 -1.97063,-4.19182 -3.66624,-5.89748 -1.9624,-1.91847 -4.3109,-3.47698 -6.65174,-4.99864 -2.03769,-1.42061 -4.11834,-2.78752 -6.3289,-3.98241 -2.13985,-1.22845 -3.98335,-2.4191 -6.65899,-2.24843 -2.98249,-0.01 -5.96495,-0.004 -8.94741,-0.0203 -3.12744,-0.009 -6.25592,-0.0135 -9.38226,0.0713 0,0 13.88017,-9.10833 13.88017,-9.10833 z"
     inkscape:connector-curvature="0" />
  <path
     style="opacity:1;fill:#000000;fill-opacity:1;stroke:#140000;stroke-width:1.19307375;stroke-linecap:round;stroke-miterlimit:4;stroke-dasharray:none;stroke-opacity:1"
     id="path864"
     d="m 157.60466,305.83138 c 3.98336,1.60101 8.16055,2.7166 12.17162,4.2647 0.7263,0.30597 1.4526,0.61194 2.1789,0.91791 0,0 -13.91969,8.33014 -13.91969,8.33014 v 0 c -0.71494,-0.29338 -1.42987,-0.58675 -2.14481,-0.88013 -4.06323,-1.52858 -8.26015,-2.72793 -12.44221,-3.95755 0,0 14.15619,-8.67507 14.15619,-8.67507 z"
     inkscape:connector-curvature="0" />
  <path
     style="opacity:1;fill:#000000;fill-opacity:1;stroke:#140000;stroke-width:1.19307375;stroke-linecap:round;stroke-miterlimit:4;stroke-dasharray:none;stroke-opacity:1"
     d="m 224.98262,12.4162 c -16.1053,0.32529 -32.45558,2.10566 -47.89244,6.24389 -8.81079,5.65097 -8.57652,17.41624 -17.42159,23.27227 -5.47431,3.08501 -1.02256,8.14003 0.70232,11.87854 5.38086,8.94023 10.44779,22.4761 24.00725,22.66576 23.19,2.05815 46.81777,-0.58108 69.81962,2.94142 9.56396,3.20808 12.45698,13.56007 20.42079,18.81936 4.47159,3.60054 8.77964,8.12152 15.43642,6.36046 13.1376,0.004 26.93251,1.17634 38.92194,-4.74493 3.1197,-1.25621 7.40301,-2.29923 9.78356,0.0836 4.36684,-12.3408 0.38632,-25.87324 -2.72999,-38.17948 -2.61577,-9.46452 -11.92889,-16.16485 -20.66518,-21.14248 -13.2272,-5.19214 -27.08925,-9.34002 -39.67111,-15.70387 -8.88352,-5.30161 -17.35307,-12.82844 -28.88379,-12.15392 -7.26932,-0.31558 -14.55154,-0.32746 -21.8278,-0.34065 z"
     id="path885"
     inkscape:connector-curvature="0" />
  <path
     style="opacity:1;fill:#000000;fill-opacity:1;stroke:#140000;stroke-width:1.19307375;stroke-linecap:round;stroke-miterlimit:4;stroke-dasharray:none;stroke-opacity:1"
     d="m 338.58432,112.07556 c -4.21771,20.34402 -3.26823,41.27214 -2.65141,61.86153 -0.54915,2.26233 2.30104,4.9793 3.60447,1.75832 13.25468,-18.32788 13.72259,-43.26623 0.3353,-61.65422 -0.57049,-0.35383 -0.59442,-1.84312 -1.28836,-1.96563 z"
     id="path887"
     inkscape:connector-curvature="0" />
  <path
     style="opacity:1;fill:#000000;fill-opacity:1;stroke:#140000;stroke-width:1.19307375;stroke-linecap:round;stroke-miterlimit:4;stroke-dasharray:none;stroke-opacity:1"
     d="m 114.05265,69.87786 c -4.6937,3.91442 -11.04647,7.28393 -7.70354,13.90951 -0.002,9.14371 5.36469,20.25419 -2.822,27.85367 -7.486533,8.05156 -8.917958,18.69002 -7.995912,28.80837 11.156482,10.47121 20.994582,24.09291 19.075812,39.30522 0.66,6.79381 -1.08142,14.63608 1.89378,20.88775 2.39019,-9.61166 2.57828,-20.07446 4.52139,-29.93023 1.58592,-8.63909 1.99664,-17.73448 -3.16406,-25.5426 -4.69157,-11.70077 -2.52194,-24.88836 0.84013,-36.65552 4.41391,-9.09233 17.88036,-14.16172 18.00879,-25.03875 -4.73015,-6.83353 -9.03742,-14.21987 -14.24397,-20.79594 -2.80348,2.39951 -5.60695,4.79901 -8.41042,7.19852 z"
     id="path889"
     inkscape:connector-curvature="0" />
  <path
     style="opacity:1;fill:#000000;fill-opacity:1;stroke:#140000;stroke-width:1.19307375;stroke-linecap:round;stroke-miterlimit:4;stroke-dasharray:none;stroke-opacity:1"
     d="m 196.95766,279.6547 c -10.83086,2.70857 -20.91636,7.71544 -31.99078,9.84824 -6.00378,1.41891 -3.66738,7.69368 -5.71159,11.37402 -1.19973,1.79795 -8.34263,2.74513 -3.15238,3.79242 5.38643,2.31182 12.08198,5.47821 17.21567,0.83388 10.00676,-5.38664 21.58946,-9.17641 33.33455,-8.79569 0.69916,-5.91612 0.24427,-12.64836 -6.08649,-16.03908 -1.00046,-0.75507 -2.30437,-1.15343 -3.60898,-1.01379 z"
     id="path891"
     inkscape:connector-curvature="0" />
  <path
     style="opacity:1;fill:#000000;fill-opacity:1;stroke:#140000;stroke-width:1.19307375;stroke-linecap:round;stroke-miterlimit:4;stroke-dasharray:none;stroke-opacity:1"
     d="m 233.56242,2.86374 c -12.0444,0.19189 -23.81331,2.53801 -35.6246,4.27342 -6.39927,1.0573 -13.0198,1.70099 -18.64341,4.98939 -1.89171,-1.32205 -3.69638,3.03246 -5.96454,3.1352 -13.67481,5.4532 -19.12494,18.7336 -26.75797,29.24894 -2.00621,3.0828 -8.95437,5.95355 -5.11762,9.83396 0.18669,3.91009 5.72758,8.71049 5.3254,12.23278 -3.01537,-3.8941 -6.19041,-7.96669 -9.02247,-11.86357 -9.20796,-4.26742 -19.21679,2.87235 -25.83653,8.17558 -2.80941,2.97403 -5.81471,6.14732 -9.43802,7.95529 -2.13576,2.49851 -6.178741,3.98622 -7.961739,7.14895 -5.495748,5.47352 -5.314238,13.7758 -2.682268,20.28659 1.297766,7.03742 1.60214,15.13522 -5.108593,20.13708 -7.184636,8.54047 -8.484727,20.07238 -5.643833,30.21989 2.128525,3.05689 4.949003,7.49172 8.532381,8.62843 0.328367,3.20612 4.534376,4.62284 4.756531,8.16617 2.058674,5.70208 5.394199,11.02738 4.259509,17.30285 0.968979,8.15498 -1.93291,17.15027 1.614422,24.86551 4.6766,6.38187 8.22693,13.83217 10.07941,21.13046 1.65512,0.0122 5.22899,-3.01602 3.90936,0.34473 -1.86413,12.07554 -14.320617,18.94139 -19.18543,29.62019 -4.387254,12.78819 1.967476,25.53273 7.67191,36.99209 2.83467,6.30419 -0.91612,12.47739 -4.54398,17.68317 -1.879942,12.11308 -1.703613,25.21743 5.10065,36.19601 4.58211,11.8323 18.96617,19.33057 19.01044,32.74165 0.49938,6.36918 -0.32256,13.8962 6.13392,18.18906 0.25408,3.6625 6.29966,6.73498 8.31557,10.21132 5.03845,7.04933 14.13158,10.53245 19.59873,17.09162 1.82712,6.45523 7.86751,12.72697 14.61209,14.53779 12.43988,4.5147 27.10315,0.67107 38.8745,7.45144 9.06215,2.50217 19.59699,3.01325 28.59409,0.102 6.78325,-3.08819 14.54504,-4.9065 20.56082,-9.02416 14.00278,-6.04624 25.31769,-15.65935 36.09387,-25.52092 8.56442,-5.55346 15.38055,-13.21547 20.32644,-21.50706 6.85294,-7.23888 17.04869,-12.21403 22.00622,-20.75718 1.0379,-20.4258 -0.82125,-41.10348 2.30359,-61.37199 3.7604,-12.40814 2.36739,-25.67653 3.56511,-38.42706 1.08691,-18.07911 -2.20399,-35.98266 -5.75352,-53.63804 0.18727,-4.72001 -1.26811,-10.89212 2.05968,-14.7846 5.07315,-6.56996 2.82243,-16.016 7.61772,-22.98669 2.78603,-4.64279 6.74341,-8.97655 9.4064,-13.48728 2.51323,0.11298 -0.0765,-2.67882 1.97839,-3.75122 7.22506,-12.60851 8.25912,-27.99455 4.83604,-41.70478 -2.474,-9.44218 -11.68346,-17.61886 -8.4789,-27.97742 2.74466,-13.85388 0.60466,-28.04475 -3.5051,-41.44909 -2.30953,-8.8759 -11.00131,-15.35027 -19.13574,-20.14319 -5.35507,-3.3928 -11.65316,-5.35283 -17.64969,-7.09449 C 305.87841,22.16738 295.87337,19.37537 287.5662,14.69468 284.09561,12.29764 280.28631,10.41543 277.29708,7.59 265.31773,1.28015 250.48576,4.11931 237.27783,2.87867 c -1.23797,-0.0391 -2.47708,-0.0436 -3.71541,-0.0149 z m -18.60275,8.80385 c 1.58141,1.51571 -2.74499,2.76344 -1.02984,0.27334 0.27213,-0.22937 0.6624,-0.33998 1.02984,-0.27334 z m 5.50382,0.10811 c 1.49385,-0.16235 3.781,0.64688 0.77013,0.54667 -1.72386,0.29309 -4.98063,-0.35947 -1.31216,-0.53239 l 0.53977,-0.0143 z m 24.68021,0.004 c 1.37136,-1.00211 6.17892,2.36128 2.57913,1.37892 -3.18958,-0.70032 -9.94857,-1.52464 -2.57913,-1.37892 z m -9.78582,0.002 c 4.1858,0.24667 -1.32122,1.09949 -2.28327,0.32841 0.71363,-0.27599 1.51574,-0.3205 2.28327,-0.32841 z m 20.02106,0.98523 c 1.70418,-0.77534 4.73559,3.03079 1.39797,1.25041 -0.58227,-0.1712 -3.99656,-1.39363 -1.39797,-1.25041 z m -50.72679,0.38961 c 1.21509,1.66365 -4.60633,1.90906 -1.54025,0.43856 0.49341,-0.18084 0.99124,-0.43368 1.54025,-0.43856 z m 55.96411,1.67877 c 1.27131,-0.0343 5.67349,2.3426 2.00548,1.88275 -0.78439,0.12994 -3.50555,-1.27989 -2.00548,-1.88275 z m -68.00158,0.0755 c 3.34697,0.86652 -4.24421,0.89396 -0.61655,0.0388 0.20302,-0.0426 0.41039,-0.0366 0.61655,-0.0388 z m -7.07343,1.3626 c 1.64253,0.39929 -3.26116,1.4072 -3.85741,1.5625 -0.78226,0.35906 -6.62417,1.07855 -2.98565,-0.19174 2.20788,-0.68941 4.5044,-1.20529 6.84306,-1.37076 z m -13.85778,8.11847 c -2.60897,0.80629 0.0204,4.8489 -2.91112,3.586 -1.05369,-1.38453 2.61022,-3.56478 2.91112,-3.586 z m 113.31262,4.05108 c 2.51604,0.61595 7.52936,1.68977 8.04908,3.87973 -2.22591,-0.92313 -6.96134,-2.23116 -8.04908,-3.87973 z m 13.72453,5.60134 c 2.32042,-0.16438 3.42907,2.49669 0.57365,1.11578 -0.28169,-0.12087 -1.36607,-1.02495 -0.57365,-1.11578 z m -137.66084,6.53149 c -2.34981,1.90358 -3.56305,4.64245 -4.2165,6.98638 -2.77893,-0.62684 0.76421,-4.56332 1.89031,-5.50547 2.60629,-2.53799 8.45036,-7.44313 2.74625,-1.91655 z m 150.01676,-2.24176 c 1.74452,0.49804 6.41611,1.77974 6.10229,3.3555 -1.322,-0.16973 -6.98702,-2.00295 -6.10229,-3.3555 z m 8.20039,4.01028 c 7.42184,3.68942 13.63566,10.21687 17.32673,17.09163 0.68427,3.15998 -3.04095,-1.55955 -3.11212,-2.45186 -3.51655,-5.50059 -8.43732,-11.17783 -14.64372,-13.90747 -0.0916,-0.29402 -0.006,-0.75127 0.42911,-0.7323 z m -160.73756,9.26077 c 2.20047,1.82966 4.74238,5.80432 4.51009,7.85738 -2.19356,-2.06374 -3.6869,-5.30366 -4.51009,-7.85738 z m 7.35798,13.32001 c 1.93459,0.6408 4.34822,4.13225 4.16231,4.89556 -1.15138,-1.22338 -4.85151,-3.42655 -4.16231,-4.89556 z m -46.29798,0.25498 c -0.23055,1.13683 -4.56472,4.20964 -2.3307,1.5523 0.46209,-0.3462 2.60545,-2.1275 2.3307,-1.5523 z m 218.25774,2.15608 c 0.97731,1.75955 1.96328,4.85115 1.18115,6.39687 -0.90568,-1.82744 -1.74478,-4.5307 -1.18115,-6.39687 z m -223.29405,0.82613 c -0.0507,2.57047 -4.11051,4.82676 -6.18361,5.69517 1.46426,-2.16134 3.70864,-4.55697 6.18361,-5.69517 z m 33.84043,0.0408 c 1.84411,0.66284 1.65957,5.55234 -0.0339,2.26623 -0.12192,-0.50443 -0.83353,-2.03869 0.0339,-2.26623 z m 26.16175,5.06486 c 2.30483,0.0463 2.41939,2.83691 5.03857,2.75376 -2.08944,0.4649 -5.5841,-1.29063 -5.96678,-2.7048 0.30634,-0.0562 0.6185,-0.0384 0.92821,-0.049 z m -21.63132,1.78076 c 4.27428,6.27423 11.5197,11.91556 20.27626,10.90283 21.68642,1.26183 43.62181,-0.7416 65.17174,1.93782 10.09513,2.5807 13.11769,13.24053 20.98767,18.66025 1.81461,2.62402 5.4895,2.64144 7.01698,5.11382 7.85956,3.71642 17.61483,1.58099 26.17981,2.34171 5.92372,-0.28256 12.44466,0.53556 17.70164,-2.07449 3.12315,0.50095 2.96267,-3.24058 6.29201,-2.82107 8.07187,-3.76384 7.22676,1.99067 6.15876,7.7819 -3.13577,17.46317 -4.83831,35.14964 -3.06178,52.83926 1.3425,10.02564 0.76796,20.99077 5.8532,30.18539 1.10618,0.71623 3.10392,-0.513 2.38719,1.76851 -1.6327,8.39042 -9.48516,16.87095 -5.72064,25.61807 1.4235,1.23128 -0.51096,2.23249 1.33475,3.56356 1.04331,4.11005 2.07362,9.09512 0.80175,13.11398 -2.8408,-0.69609 -4.19176,2.91098 -7.39188,2.82312 -5.20457,1.92864 -1.74875,8.33047 -4.04034,12.04715 -2.04808,6.30863 -2.7466,13.18487 -8.02198,18.21966 -1.30674,2.5757 -1.59019,5.27043 -3.42604,7.60035 -1.53097,5.94954 -3.82389,12.43513 -7.87293,17.18342 -3.81012,-2.61448 -6.32689,-6.82442 -11.04149,-8.17355 -4.17779,-3.97883 -12.77749,-1.92933 -14.76116,-8.28982 -4.03101,-6.63824 -9.30354,-14.29682 -17.56614,-16.84276 -4.99116,-0.49567 -10.32948,1.12072 -14.69114,2.62524 -2.97029,3.87328 -9.01154,5.25945 -13.18701,7.96548 -3.1758,-5.26862 -9.33366,-11.88294 -16.78246,-8.58967 -8.01433,2.00276 -14.27302,7.5725 -22.84917,8.19781 -13.40157,2.16601 -27.07887,6.97952 -36.68778,15.88632 -0.95172,1.19429 1.14994,4.73926 -1.18794,1.73996 -7.54547,-9.12663 -0.64234,-21.71526 -7.39301,-31.29082 -2.00061,-7.53108 -8.62244,-13.26739 -10.90712,-20.57561 -0.24635,-3.28654 -0.52856,-7.05487 -2.8637,-9.48719 7.43506,-5.85945 6.24909,-16.36286 7.48447,-24.44721 1.47452,-17.99708 4.24639,-35.90444 6.39254,-53.80831 0.77719,-11.78715 -7.97773,-22.07728 -6.11281,-33.94651 -0.52973,-10.64515 1.34803,-23.50448 12.45335,-29.50407 5.33599,-4.77343 8.65896,-11.58972 9.0744,-18.26453 z m -20.94024,0.64662 c 1.72024,0.86087 1.36289,4.195 -0.11969,1.35852 -0.18455,-0.36245 -0.50598,-1.23851 0.11969,-1.35852 z m -25.23579,0.0775 c 1.03827,1.26513 -3.05234,3.89515 -1.04114,0.96483 0.22913,-0.3416 0.50398,-0.97266 1.04114,-0.96483 z m 77.7219,0.76085 c 4.18579,0.24667 -1.32123,1.09949 -2.28329,0.32841 0.71364,-0.27599 1.51576,-0.3205 2.28329,-0.32841 z m 155.60414,0.34881 c 1.21358,1.01543 -0.4329,4.96804 -0.27103,1.54618 0.0756,-0.46347 -0.0939,-1.17243 0.27103,-1.54618 z M 197.2648,77.16397 c 2.57912,0.14481 8.7443,-0.0736 9.76098,0.80369 -5.13533,0.21942 -11.05666,0.80439 -15.81359,-0.48751 1.96017,-0.43163 4.05142,-0.25713 6.05261,-0.31618 z m 24.3121,0.40797 c 5.71918,0.0501 2.9415,0.5869 -1.07728,0.43847 -1.22667,0.0578 -9.26761,-0.0671 -3.83484,-0.35892 1.63535,-0.0851 3.27448,-0.10792 4.91212,-0.0796 z m 16.09362,0.006 c 4.1858,0.24667 -1.32122,1.09949 -2.28328,0.32841 0.71363,-0.276 1.51575,-0.32051 2.28328,-0.32841 z m 18.65019,2.6538 c 2.07911,0.72575 4.94253,2.67316 5.45864,4.28565 -1.79379,-1.08409 -4.64405,-2.93638 -5.45864,-4.28565 z m -119.835,2.80475 c 1.41632,1.07015 -0.45962,3.93506 -0.27778,1.0505 0.0751,-0.28961 -0.0359,-0.87307 0.27778,-1.0505 z m 128.61354,5.21173 c 2.72886,0.41415 0.76817,2.76622 -0.54653,0.96483 -0.19491,-0.38185 -0.0742,-1.08164 0.54653,-0.96483 z m -158.54462,0.1693 c 0.66703,0.72823 1.81332,4.71634 0.53751,4.30198 -0.68997,-1.12644 -1.37664,-3.1694 -0.53751,-4.30198 z m 29.11127,0.9322 c 1.03827,1.26514 -3.05234,3.89516 -1.04114,0.96483 0.22913,-0.34159 0.50398,-0.97265 1.04114,-0.96483 z m 131.06395,1.68285 c 1.45633,0.44311 3.84869,3.69959 2.88402,4.39989 -0.97668,-0.85437 -3.96482,-3.37639 -2.88402,-4.39989 z m 73.97965,2.09489 c 0.57466,2.31996 -0.34893,6.67978 -2.26068,7.91857 -1.78779,-2.09964 2.45379,-3.82193 1.26472,-6.42134 0.14395,-0.47937 0.25036,-1.49446 0.99596,-1.49723 z m -210.16574,2.07246 c 1.49214,0.87724 -3.70198,4.84402 -1.78416,1.52578 0.32032,-0.67335 0.89516,-1.44086 1.78416,-1.52578 z m 141.07109,1.19329 c 1.52825,-0.033 6.49794,3.59912 2.56559,2.53549 -0.92197,-0.49889 -2.56922,-1.86721 -2.56559,-2.53549 z m 62.16803,2.07245 c 0.41069,1.14016 -4.06351,2.07364 -5.39089,2.5253 -4.36868,0.94591 1.09143,-1.86608 2.44362,-1.92559 0.95839,-0.27269 1.93034,-0.5707 2.94727,-0.59971 z m -55.85795,3.01689 c 1.496,-0.45964 3.76008,3.12094 1.13824,1.34424 -0.0525,-0.0785 -2.62829,-1.2884 -1.13824,-1.34424 z m 41.27296,1.05459 c -0.29536,3.459 -6.59165,2.97758 -9.53514,2.90878 -4.07423,-0.19282 1.27854,-2.08223 2.7395,-1.28713 3.27614,1.29937 4.28988,-1.01524 6.79564,-1.62165 z m -20.09107,2.18668 c 6.1444,0.0714 2.75803,0.60095 -1.16987,0.4508 -3.85351,0.15166 -7.34875,-0.38063 -1.16987,-0.4508 0.77993,-0.0179 1.5598,-0.009 2.33974,0 z m 40.14375,3.20047 c -0.79794,3.13683 2.76694,6.25094 1.86771,8.9752 -1.14922,-3.03452 -4.6502,-5.32295 -1.86771,-8.9752 z m -233.45251,0.99952 c 0.0896,1.91336 -6.524671,7.16303 -3.35604,3.2739 0.82777,-1.16609 1.75364,-2.93469 3.35604,-3.2739 z m 231.97322,5.55646 c 1.2136,1.01543 -0.43289,4.96804 -0.27102,1.54618 0.0756,-0.46346 -0.0939,-1.17243 0.27102,-1.54618 z m 4.51011,3.80222 c 1.77622,0.20953 2.27009,4.10055 0.47878,1.5217 -0.15828,-0.44761 -0.61598,-1.10918 -0.47878,-1.5217 z m -245.081212,2.42534 c 0.365435,2.68093 -1.584514,7.17191 -2.353293,8.75082 0.588033,-2.67649 0.224713,-6.72021 2.353293,-8.75082 z m 248.152682,2.1826 c 2.19748,0.39074 2.50054,4.72825 1.72545,5.25866 -0.44301,-1.37471 -2.57844,-3.94525 -1.72545,-5.25866 z m -229.68091,1.92152 c 1.41632,1.07015 -0.45963,3.93506 -0.27779,1.0505 0.0751,-0.28961 -0.0359,-0.87307 0.27779,-1.0505 z m 220.29709,1.73384 c 0.90153,1.52231 0.55788,6.01981 -1.69607,5.95218 0.14509,-1.65179 0.24334,-4.93489 1.69607,-5.95218 z m -0.65946,7.3209 c 0.96468,3.65695 0.30265,8.57789 -0.86046,11.7473 -0.29105,-3.65704 -0.84098,-8.46465 0.86046,-11.7473 z m 13.93908,1.38912 c 1.41632,1.07015 -0.45962,3.93506 -0.27778,1.05051 0.0751,-0.28962 -0.0359,-0.87308 0.27778,-1.05051 z m -254.002029,1.85034 c -0.821802,2.66991 3.200937,5.53374 3.283765,7.01289 -2.28849,-1.24888 -4.692547,-4.62446 -3.283765,-7.01289 z M 334.89404,147.5337 c 0.89363,2.96106 0.97754,7.76812 0.0949,10.09914 -1.61579,-2.85135 -1.25577,-7.28671 -0.0949,-10.09914 z m 14.77244,3.15763 c 0.63601,1.72769 -0.009,6.02462 -1.51089,6.24797 0.25488,-2.07851 0.50444,-4.36396 1.51089,-6.24797 z m -228.97854,0.30598 c 2.11722,0.47301 0.98385,5.18648 0.0858,1.65429 0.0577,-0.33232 -0.66479,-1.52202 -0.0858,-1.65429 z m 0.87853,5.61766 c 1.00062,0.89192 -0.088,5.74175 -0.25294,2.31315 0.0634,-0.71891 -0.13144,-1.69473 0.25294,-2.31315 z m 226.51233,2.68031 c 0.83544,1.20872 -0.88072,4.219 -2.14778,4.12451 0.24981,-1.38068 0.65764,-3.39299 2.14778,-4.12451 z m -12.87535,1.09335 c 1.53211,0.65358 1.05598,5.46078 -0.65044,4.77317 -0.56105,-1.3516 -0.94188,-3.87857 0.65044,-4.77317 z m -224.05968,2.01738 c 2.82608,1.01459 2.99461,6.45388 2.10487,7.1312 0.87111,-2.72634 -2.42512,-4.97453 -2.17713,-7.12712 l 0.07,-0.004 z m 234.83694,2.77211 c -0.65919,2.22878 -2.42556,6.04421 -4.03131,7.01901 0.60527,-2.4698 2.19368,-5.12227 4.03131,-7.01901 z m -10.88116,3.14744 c 2.17768,0.66266 -0.0167,3.32859 -0.79722,0.73025 -0.29758,-0.50251 0.28729,-0.86901 0.79722,-0.73025 z m 0.35909,3.59619 c 1.2136,1.01543 -0.43289,4.96805 -0.27101,1.54619 0.0756,-0.46347 -0.0939,-1.17244 0.27101,-1.54619 z m -220.8572,2.08878 c 1.2136,1.01542 -0.43288,4.96804 -0.271,1.54618 0.0756,-0.46347 -0.0939,-1.17244 0.271,-1.54618 z m 5.69579,0.9322 c 1.41632,1.07015 -0.45963,3.93506 -0.27778,1.0505 0.0751,-0.28962 -0.0359,-0.87307 0.27778,-1.0505 z m 218.97592,0.81592 c 1.05216,1.91249 -4.42424,5.61051 -2.93372,1.61962 1.02889,-0.75644 2.26002,0.49268 2.93372,-1.61962 z M 114.38012,193.7886 c 1.40694,1.4856 0.39415,4.45546 2.70335,5.60949 0.80768,1.04894 -0.0132,4.97486 -1.00727,2.11937 -0.56003,-2.20989 -3.30042,-5.6428 -1.69608,-7.72886 z m -2.95855,58.05932 c 0.76671,4.5733 5.01872,7.98023 6.9334,12.2593 2.46312,2.44863 2.29574,6.89434 4.65238,9.74012 5.16085,10.60157 0.36199,23.64185 8.83728,33.31837 4.63249,5.73305 12.56161,8.70932 19.89006,10.43367 2.38646,-0.64388 5.46783,0.14719 2.17261,2.07654 -2.00225,3.05538 3.7695,1.24638 4.99793,0.48955 4.28017,-1.68412 8.50112,-3.72132 11.67386,-6.89254 7.57493,7.22777 19.23941,5.88694 28.47666,10.02366 12.24225,4.16613 25.80945,2.73284 38.47926,1.26468 4.97801,-0.81866 8.39632,-4.47059 12.30624,-6.68448 5.67894,-1.97022 6.86754,4.34345 9.75645,6.88643 5.73458,2.40029 12.45963,1.96736 18.05396,4.57734 1.91152,2.63968 5.22432,2.73263 7.54318,0.32637 3.06013,-3.00224 9.24095,-3.22261 10.76146,-7.06388 5.78406,-0.81388 6.00327,-8.19497 6.96953,-12.2491 3.98321,-11.00366 10.82167,-21.04702 14.47434,-32.2332 2.05501,-6.82785 8.47322,-11.9827 9.00892,-19.16612 1.29504,-2.71975 1.3723,2.87203 1.45443,3.43914 0.16024,18.81266 0.26782,37.88716 -3.10761,56.47234 -2.62045,6.33213 -1.0177,14.08193 -1.82665,20.88047 -0.73161,13.38556 0.31441,27.08329 -1.72814,40.29977 -6.87626,8.63698 -17.87566,14.10868 -23.77684,23.44565 -4.21567,5.52395 -8.55869,11.00165 -14.91924,14.7948 -3.16156,1.03864 -4.64316,3.20925 -6.28976,5.65641 -9.41496,8.87325 -20.97979,17.91407 -35.18872,18.72552 -10.36103,-0.37033 -20.40474,-2.54079 -30.01915,-5.83999 -10.78568,-1.33823 -23.05462,0.46245 -32.03144,-6.21328 -2.47986,-0.0383 -5.06071,-4.12511 -6.42526,-6.13986 -0.78585,-8.00296 -10.38104,-10.73592 -15.91069,-15.73107 -6.16957,-6.79964 -12.6563,-13.68477 -17.41708,-21.32832 -3.56884,-9.32416 0.11582,-21.08303 -8.69004,-28.6117 -3.54594,-2.76629 -5.31737,-7.06097 -8.37698,-9.92658 -1.50889,-0.26983 0.59289,-2.28159 -1.39797,-2.75783 -8.39914,-11.02696 -10.01477,-25.63736 -7.07569,-38.49338 2.40486,-4.28986 6.51544,-8.08349 5.38412,-13.43424 -1.13373,-12.01131 -12.20813,-21.97394 -9.93261,-34.55654 0.50896,-2.53908 0.58895,-5.6782 2.2878,-7.78802 z m 123.97697,26.11985 c 2.36694,-0.5517 4.40539,0.73978 5.36379,1.85623 3.98257,0.3602 6.25588,5.55374 8.86211,8.05932 0.97666,1.88485 4.02376,4.73942 3.76029,6.50294 -7.08135,-3.82225 -16.41194,-0.11688 -23.65035,-3.01689 -1.97927,-4.47975 1.38402,-8.77617 1.79772,-12.91408 1.16842,-0.55781 2.59346,-0.42449 3.86644,-0.48752 z m -38.37538,1.04439 c 1.10587,-0.0821 5.73757,0.16003 2.02355,0.75065 -1.31984,0.87417 -10.30348,1.54428 -5.18311,-0.42428 1.03179,-0.22962 2.09805,-0.32291 3.15956,-0.32637 z m -12.98603,4.21018 c 0.89309,1.23601 -6.22864,2.86472 -2.48203,0.79961 0.76649,-0.36863 1.59223,-0.73557 2.48203,-0.79961 z m -9.64128,2.95978 c -0.93274,1.22942 -5.07744,2.66386 -5.4338,2.6232 1.54391,-1.19731 3.36352,-2.40165 5.4338,-2.6232 z m -11.47512,3.2739 c 1.49214,0.87724 -3.70198,4.84403 -1.78416,1.52579 0.32032,-0.67336 0.89516,-1.44087 1.78416,-1.52579 z m 44.21345,0.84041 c 1.00062,0.89193 -0.088,5.74175 -0.25294,2.31315 0.0634,-0.71891 -0.13143,-1.69473 0.25294,-2.31315 z m -2.85918,6.60493 c 4.05155,0.23323 -1.00139,1.20653 -1.63511,0.31209 0.49388,-0.24919 1.07904,-0.30255 1.63511,-0.31209 z m 56.54,1.97046 c 3.54842,2.00048 8.90347,2.74324 10.95117,6.15209 3.20071,-0.0223 6.40416,4.02358 7.14343,6.8293 -2.18158,3.43927 -7.1568,-1.53941 -8.86889,-3.16171 -2.87622,-2.69341 -3.8498,-6.23425 -7.89775,-8.11032 -0.0791,-0.23708 -2.35936,-1.6702 -1.32796,-1.70936 z m -73.50765,0.44672 c 1.21508,1.66365 -4.60634,1.90906 -1.54026,0.43856 0.49341,-0.18084 0.99124,-0.43367 1.54026,-0.43856 z m 32.3973,1.44419 c 8.23876,0.57162 18.21147,-0.86558 24.1043,5.63602 6.26784,3.68364 12.37825,7.37337 1.50186,8.98947 -8.98427,2.8344 -19.51905,2.88687 -28.48566,0.21826 -4.35192,-1.95248 -9.54152,-2.43872 -14.04977,-4.41213 -4.65391,-1.70061 -11.81369,-0.34049 -14.81986,-4.41416 8.69087,-1.64989 19.24073,-0.21957 26.67668,-5.44427 0.57515,-1.34507 3.92123,-0.12431 5.07245,-0.57319 z m -66.68717,2.35191 c 1.35603,0.22922 4.89011,1.98803 4.11939,2.75375 -0.94438,0.086 -6.9117,-1.20261 -4.11939,-2.75375 z m 14.70921,4.35705 c 1.48156,-0.35636 4.45825,0.37843 1.54703,0.95668 -1.68736,0.78473 -5.4341,-1.19523 -1.54929,-0.95668 z m 8.01746,1.24633 c 1.21508,1.66365 -4.60634,1.90906 -1.54026,0.43855 0.49341,-0.18083 0.99125,-0.43367 1.54026,-0.43855 z"
     id="path893"
     inkscape:connector-curvature="0" />
  <path
     style="opacity:1;fill:#000000;fill-opacity:1;stroke:#140000;stroke-width:1.19307375;stroke-linecap:round;stroke-miterlimit:4;stroke-dasharray:none;stroke-opacity:1"
     d="m 235.11849,278.89997 c -4.86988,0.40498 -4.8135,6.65717 -5.26668,10.03998 2.38864,4.46325 10.04044,1.94765 14.30043,3.02505 1.59157,-0.83404 6.894,1.77586 7.08473,-0.31414 -3.4857,-5.16678 -8.69657,-12.31037 -16.11848,-12.75089 z"
     id="path895"
     inkscape:connector-curvature="0" />
  <path
     style="opacity:1;fill:#000000;fill-opacity:1;stroke:#140000;stroke-width:1.19307375;stroke-linecap:round;stroke-miterlimit:4;stroke-dasharray:none;stroke-opacity:1"
     d="m 266.0591,302.15796 c 1.03277,3.47962 5.86836,6.58198 8.9005,9.18734 1.51192,2.1234 4.93816,0.91673 2.57462,-1.23001 -3.10047,-3.08738 -6.86989,-6.96733 -11.47512,-7.95733 z"
     id="path897"
     inkscape:connector-curvature="0" />
  <path
     style="opacity:1;fill:#000000;fill-opacity:1;stroke:#140000;stroke-width:1.19307375;stroke-linecap:round;stroke-miterlimit:4;stroke-dasharray:none;stroke-opacity:1"
     d="m 111.2567,253.41653 c -6.10905,13.72645 5.61158,26.33791 8.11457,39.42151 1.3104,8.42299 -6.88983,15.01249 -6.25588,23.49869 -2.00765,17.49276 9.79447,32.66125 20.62632,46.03052 6.85439,9.19562 1.72203,21.60575 9.85583,30.28108 6.88442,9.56053 15.97513,17.56756 25.72587,24.62672 4.48064,5.34563 6.23512,13.23492 14.45401,15.17828 12.02998,4.55118 25.81543,2.05135 37.90032,6.79588 14.13568,4.87803 30.69288,2.87298 42.27135,-6.13163 13.21145,-10.31544 26.49458,-20.91065 36.40879,-34.01733 6.37405,-7.11191 13.94592,-13.24806 21.22267,-19.58426 0.96776,-22.91106 -0.89809,-46.12299 3.81448,-68.75204 1.28259,-15.95377 1.33504,-32.18573 1.54704,-48.02953 -9.7561,14.53854 -15.32878,30.91159 -22.6955,46.47291 -1.62005,6.22203 -3.48604,13.09714 -10.52543,16.16634 -4.49718,1.75208 -8.67041,7.07514 -13.96914,6.21886 -7.00787,-5.42921 -19.22277,-2.06047 -23.94622,-10.52954 -3.5334,-5.09322 -9.57984,-0.14097 -13.22767,2.01534 -11.63873,4.39945 -24.953,3.09625 -37.25068,2.30295 -10.30796,-3.2348 -21.4235,-4.61442 -31.3155,-8.84464 -2.14893,-2.68814 -5.10668,-1.68408 -7.11409,0.42632 -4.93601,2.3842 -10.20539,5.38972 -15.60807,6.25408 1.03965,-2.0226 1.8463,-4.48772 -1.5809,-5.19542 -7.83764,-3.34393 -17.56687,-6.00757 -20.51566,-14.32156 -5.7033,-9.59839 -2.08448,-21.13012 -7.61083,-30.86895 -2.92672,-6.65427 -6.71803,-13.18198 -10.32568,-19.41458 z"
     id="path899"
     inkscape:connector-curvature="0" />
  <path
     style="opacity:1;fill:#000000;fill-opacity:1;stroke:#140000;stroke-width:1.19307375;stroke-linecap:round;stroke-miterlimit:4;stroke-dasharray:none;stroke-opacity:1"
     id="path901"
     d="m 141.32063,307.94891 c 3.16407,1.4886 6.73169,2.05683 10.18552,2.74855 3.58558,0.81199 7.17455,1.62581 10.48639,3.13619 2.75592,1.31804 4.60636,2.97997 6.34262,5.26367 1.23404,1.92493 2.69031,3.73653 4.36702,5.36471 0.72054,0.72984 1.35588,1.49606 1.92583,2.32443 0,0 -14.78548,7.75186 -14.78548,7.75186 v 0 c -0.49236,-0.7487 -1.03906,-1.45513 -1.69652,-2.09715 -1.70078,-1.69496 -3.15423,-3.58867 -4.43183,-5.56225 -1.56598,-1.96529 -3.37306,-3.57772 -5.84397,-4.62748 -3.24293,-1.34517 -6.69291,-2.18617 -10.1605,-2.92072 -3.59681,-0.76141 -7.21367,-1.45875 -10.63081,-2.76426 0,0 14.24173,-8.61755 14.24173,-8.61755 z"
     inkscape:connector-curvature="0" />
  <path
     style="opacity:1;fill:#000000;fill-opacity:1;stroke:#140000;stroke-width:1.19307375;stroke-linecap:round;stroke-miterlimit:4;stroke-dasharray:none;stroke-opacity:1"
     id="path903"
     d="m 121.35358,296.85022 c -1.15444,2.31474 -2.03503,4.71302 -2.85792,7.13543 -1.34839,2.67076 -2.01587,5.36044 -2.02932,8.28413 0.0985,2.39584 1.57661,4.39067 2.86811,6.39327 1.17065,2.25379 2.39581,4.48074 3.62193,6.71357 1.59757,2.54235 3.2217,5.05473 4.47144,7.75466 1.06413,2.5064 2.49997,4.84158 3.47051,7.38429 1.36898,2.96719 2.66916,5.94089 3.71785,9.01365 1.03485,2.42731 1.75834,4.94129 3.42437,7.08801 1.89655,2.40385 3.62193,4.91205 5.48161,7.3384 1.97242,2.16492 3.51063,4.51224 4.74324,7.07129 1.06586,2.34154 1.48574,4.83537 2.02934,7.29736 0.39306,2.08051 1.13162,4.06226 1.97029,6.02389 0.87145,2.08696 2.30455,3.88847 3.53428,5.806 1.39474,1.90431 2.76747,3.82427 4.18528,5.71566 0.88299,1.16409 1.97294,2.1753 3.04436,3.19506 1.69873,1.06067 2.81706,2.65058 4.03435,4.11859 1.27201,1.72831 2.65248,3.2925 4.29351,4.74749 2.03525,1.74603 3.12295,4.03785 4.44148,6.21826 2.09924,2.75407 4.08776,5.57118 6.11594,8.36934 1.57823,2.24861 3.35185,4.32369 5.25979,6.34286 1.77627,2.3156 4.22072,4.03087 7.05015,5.1655 2.5704,0.79 5.35677,1.06971 8.04564,0.74302 1.79416,-0.10777 3.15197,-1.07972 4.73443,-1.70546 1.68098,-0.26334 3.26107,-0.7646 4.96442,-1.00099 0.22652,-0.0225 1.98708,-0.20827 2.20463,-0.18447 1.66138,0.18177 3.88029,0.96654 5.45393,1.50756 2.62838,0.89082 5.15457,1.99128 7.80774,2.83095 2.3517,0.89585 4.70933,1.81332 7.17625,2.42674 1.04723,0.40432 2.22944,0.21026 3.3067,0.41073 0.56128,0.10445 1.08856,0.32462 1.63863,0.46978 1.89267,0.22052 3.68534,0.7494 5.53018,1.1627 1.7264,0.44944 3.36295,0.10075 4.99278,-0.4919 2.16026,-0.62918 4.01597,-1.88805 6.05804,-2.77894 0.41249,-0.20896 0.82499,-0.41792 1.23749,-0.62688 -4.41377,2.28977 -8.80977,4.60772 -13.24132,6.8693 -0.3986,0.20342 0.7675,-0.45156 1.13909,-0.69311 0.91432,-0.59433 1.78615,-1.24746 2.6905,-1.85493 48.5866,-26.54482 -10.41388,6.76857 3.35534,-1.97526 1.39895,-0.7611 2.19848,-2.0546 3.28762,-3.10685 1.05462,-1.54337 2.29582,-2.952 3.59763,-4.32916 1.44277,-1.27455 2.76247,-2.66708 4.28133,-3.86798 5.64673,-3.44845 11.86342,-6.3479 17.67404,-9.36118 0.39811,-0.20646 1.61588,-0.78726 1.21838,-0.57987 -14.31374,7.46831 -17.54182,9.53556 -12.24421,6.21417 2.20897,-1.65515 3.56567,-3.99087 5.25148,-6.04687 1.72229,-1.84882 3.55832,-3.59708 4.97094,-5.65871 1.29152,-1.99027 2.77588,-3.87203 4.15198,-5.8176 1.20848,-1.9642 2.3815,-3.94187 3.67108,-5.86468 1.1037,-1.61855 1.83989,-3.42056 2.61093,-5.18308 0.86438,-1.82626 1.14424,-3.80118 1.65743,-5.71759 0.34148,-2.45789 1.76757,-4.53724 2.89551,-6.7344 0.9855,-2.8061 3.29313,-4.89291 5.17451,-7.20844 0.26381,-0.35357 0.5276,-0.70714 0.7914,-1.06072 0,0 15.53449,-6.13996 15.53449,-6.13996 v 0 c -0.2636,0.36191 -0.52718,0.72382 -0.79078,1.08573 -1.69533,2.36932 -4.18793,4.23926 -5.35856,6.8924 -0.79733,2.25532 -2.58036,4.09721 -2.89777,6.50113 -0.50277,1.98143 -0.84724,3.99844 -1.55791,5.92967 -0.81449,1.81188 -1.50804,3.66999 -2.44449,5.43028 -1.39172,1.87645 -2.63938,3.81879 -3.77673,5.82734 -1.16237,2.04294 -2.71728,3.88466 -4.14564,5.78429 -1.2092,2.23625 -2.96665,4.11612 -4.87562,5.89828 -1.88018,2.02337 -3.30329,4.3249 -5.09762,6.41233 -5.73583,4.2694 -0.77127,0.66096 -16.73112,9.07196 -0.40506,0.21347 -1.63047,0.83786 -1.22477,0.62537 23.65553,-12.38986 16.44728,-8.66876 11.42431,-5.9489 -1.78526,0.87183 -2.97818,2.34967 -4.40146,3.61896 -1.47818,1.13176 -2.70144,2.5994 -3.6831,4.09755 -1.01884,1.63163 0.0647,0.13271 -1.12844,1.25419 -0.72497,0.68145 -0.99871,1.68959 -1.87418,2.25066 -8.79462,6.3156 -33.53698,16.94461 -3.3999,2.12214 -1.02871,0.49406 -1.94551,1.09651 -2.85185,1.76158 -0.37333,0.27395 -0.67739,0.63087 -1.09013,0.85397 -11.73954,6.34565 -10.75083,5.85325 -17.03837,8.86728 -2.03984,1.02024 -4.04789,2.12308 -6.34385,2.61279 -1.89273,0.35707 -3.6787,0.38088 -5.53868,-0.18861 -1.84147,-0.45618 -3.7097,-0.75744 -5.56756,-1.15203 -1.63164,-0.36016 -3.34665,-0.38935 -4.92232,-0.97097 -2.42485,-0.76467 -4.79785,-1.66407 -7.18188,-2.52514 -2.59211,-0.932 -5.14122,-1.96252 -7.76689,-2.81437 -2.39507,-0.68132 -4.72057,-1.26191 -7.21642,-0.60815 -1.62513,0.35446 -3.28316,0.73431 -4.8089,1.34567 -1.58431,0.67382 -3.14398,1.17729 -4.93976,1.14521 -2.92594,-0.004 -5.86928,-0.23215 -8.54142,-1.40386 -2.90503,-1.40863 -5.42067,-3.28556 -7.40629,-5.68344 -2.003,-2.045 -3.7149,-4.25069 -5.34382,-6.55004 -2.00867,-2.84657 -3.88785,-5.75968 -6.15183,-8.45452 -1.30629,-2.01968 -2.42135,-4.14836 -4.31474,-5.79298 -1.67951,-1.5075 -3.12957,-3.1333 -4.4145,-4.92778 -1.22726,-1.41174 -2.40657,-2.84416 -4.02561,-3.92075 -1.15823,-1.06971 -2.28105,-2.18632 -3.17122,-3.45353 -1.39177,-1.93597 -2.61412,-3.97106 -4.13555,-5.83328 -1.31524,-1.97024 -2.79725,-3.84149 -3.70602,-6.00932 -0.87067,-2.03413 -1.72676,-4.06596 -2.11201,-6.23186 -0.58816,-2.35416 -0.6849,-4.81999 -1.78778,-7.06283 -1.19925,-2.45998 -2.6624,-4.74009 -4.54788,-6.83778 -1.84565,-2.43818 -3.54486,-4.96583 -5.56386,-7.29548 -1.72732,-2.30902 -2.49624,-4.94789 -3.58197,-7.53388 -1.06669,-3.04325 -2.15737,-6.06065 -3.68998,-8.9484 -1.05086,-2.4818 -2.41216,-4.81786 -3.45435,-7.29874 -1.26776,-2.65079 -2.73228,-5.20011 -4.37052,-7.68255 -1.27032,-2.18285 -2.61936,-4.32632 -3.67716,-6.59707 -1.41111,-2.24321 -3.02154,-4.49153 -3.24433,-7.13371 0.0421,-3.02368 0.21361,-5.94204 1.77642,-8.69546 0.9122,-2.37552 1.63671,-4.81282 2.64627,-7.15676 0,0 15.55894,-6.49922 15.55894,-6.49922 z"
     inkscape:connector-curvature="0" />
  <path
     style="opacity:1;fill:#000000;fill-opacity:1;stroke:#140000;stroke-width:1.19307375;stroke-linecap:round;stroke-miterlimit:4;stroke-dasharray:none;stroke-opacity:1"
     id="path905"
     d="m 336.38943,256.17753 c -1.89041,2.24412 -2.97442,4.89109 -3.7551,7.59222 -0.81735,2.57924 -1.38339,5.20529 -1.69546,7.87115 -0.19564,2.08984 -0.23799,4.18973 -0.20701,6.28604 0.0156,1.81732 0.008,3.63474 0.006,5.4521 0.0196,1.59925 0.0397,3.19868 0.0319,4.79804 0.013,1.5525 -0.0185,3.1054 0.002,4.65784 0.32654,2.18485 0.54381,4.3871 0.94894,6.56124 0.64879,2.43843 0.94775,4.92807 1.15026,7.42409 0.1694,2.65382 0.12701,5.31418 0.14193,7.97129 0.0161,2.36231 0.025,4.72464 0.0297,7.08698 0.0528,2.24982 0.0354,4.47851 -0.29731,6.71004 -0.39779,2.26598 -1.33359,4.37596 -2.68832,6.30415 -1.86584,2.32895 -4.25459,4.25987 -6.84495,5.90803 -5.35331,2.53078 -10.70664,5.06156 -16.05995,7.59234 0,0 13.54065,-9.2196 13.54065,-9.2196 v 0 c -4.41737,2.38004 -8.83474,4.76007 -13.25209,7.14011 2.72466,-1.30152 4.94926,-3.21554 7.03403,-5.2498 1.32928,-1.77173 2.54557,-3.57144 3.03797,-5.70796 0.35882,-2.16366 0.44673,-4.31111 0.36654,-6.50084 0.01,-2.37289 0.0296,-4.74573 0.0468,-7.11858 0.009,-2.62328 -0.01,-5.24716 -0.13115,-7.86856 -0.14602,-2.44468 -0.40999,-4.88115 -1.05429,-7.26599 -0.48766,-2.23669 -0.5708,-4.53414 -1.22109,-6.74782 0.0204,-1.55294 -0.01,-3.10633 0.002,-4.65932 -0.009,-1.60698 0.0111,-3.21399 0.0238,-4.82091 -0.01,-1.81723 -0.0322,-3.6345 -0.0211,-5.45175 0.0417,-2.1511 0.01,-4.30564 0.20461,-6.45201 0.28476,-2.74028 0.81553,-5.44652 1.65727,-8.09545 0.72092,-2.81591 1.77781,-5.4985 3.24829,-8.06446 0,0 15.75609,-6.13261 15.75609,-6.13261 z"
     inkscape:connector-curvature="0" />
  <path
     style="opacity:1;fill:#000000;fill-opacity:1;stroke:#140000;stroke-width:1.19307375;stroke-linecap:round;stroke-miterlimit:4;stroke-dasharray:none;stroke-opacity:1"
     id="path907"
     d="m 319.04462,287.50912 c -2.00959,2.03676 -3.17731,4.56838 -4.44715,7.00833 -1.14408,2.17043 -2.31246,4.31253 -2.98612,6.64528 -0.46197,1.84712 -0.48472,3.74639 -0.55291,5.62958 -0.0596,2.47343 -0.0367,4.94727 -0.0176,7.42096 -0.002,0.43691 -0.006,0.87383 -0.008,1.31074 0,0 -15.10286,6.95374 -15.10286,6.95374 v 0 c -0.004,-0.43321 -0.009,-0.86642 -0.0136,-1.29963 0.004,-2.47081 -8.7e-4,-4.94144 -0.0486,-7.41192 -0.0287,-1.98612 0.0606,-3.97427 0.41313,-5.93852 0.55655,-2.48326 1.64304,-4.7396 2.90995,-6.99231 1.32616,-2.40823 2.34862,-5.00974 4.09774,-7.19364 0,0 15.75609,-6.13261 15.75609,-6.13261 z"
     inkscape:connector-curvature="0" />
  <path
     style="opacity:1;fill:#000000;fill-opacity:1;stroke:#140000;stroke-width:1.19307375;stroke-linecap:round;stroke-miterlimit:4;stroke-dasharray:none;stroke-opacity:1"
     id="path909"
     d="m 241.75148,275.69458 c -0.0974,1.8349 -0.0138,3.67158 -0.0385,5.50718 -0.0756,1.62157 -0.61222,3.18127 -0.88608,4.77852 -0.10507,0.94773 -0.0566,0.47327 -0.14549,1.42338 0,0 -15.30968,6.92756 -15.30968,6.92756 v 0 c 0.0585,-1.00589 0.0172,-0.50362 0.12404,-1.50682 0.16135,-1.57676 0.54653,-3.09627 1.00743,-4.62306 -0.0248,-1.82378 0.0594,-3.64867 -0.0385,-5.47172 0,0 15.28684,-7.03504 15.28684,-7.03504 z"
     inkscape:connector-curvature="0" />
  <path
     style="opacity:1;fill:#000000;fill-opacity:1;stroke:#140000;stroke-width:1.19307375;stroke-linecap:round;stroke-miterlimit:4;stroke-dasharray:none;stroke-opacity:1"
     id="path911"
     d="m 258.02486,286.81644 c 2.97456,0.93582 5.55228,2.56357 8.01431,4.29631 2.96927,2.36342 5.62795,5.08371 8.15431,7.83728 1.98346,2.51395 4.34904,4.68574 6.85411,6.76782 2.28423,2.14004 5.06759,3.71786 7.58778,5.6029 1.26794,1.17841 2.46649,2.40161 3.75882,3.55885 0,0 -14.35571,7.9454 -14.35571,7.9454 v 0 c -1.245,-1.13441 -2.45521,-2.30049 -3.74801,-3.39104 -2.55126,-1.88393 -5.29361,-3.54833 -7.59209,-5.7036 -2.5519,-2.13854 -4.96583,-4.36657 -6.95015,-6.9668 -2.39809,-2.70756 -4.99599,-5.3261 -7.98715,-7.50973 -2.35392,-1.58878 -4.84812,-3.13638 -7.80968,-3.58021 0,0 14.07346,-8.85718 14.07346,-8.85718 z"
     inkscape:connector-curvature="0" />
  <path
     style="opacity:1;fill:#000000;fill-opacity:1;stroke:#140000;stroke-width:1.19307375;stroke-linecap:round;stroke-miterlimit:4;stroke-dasharray:none;stroke-opacity:1"
     id="path913"
     d="m 255.86469,314.44766 c 2.8146,1.5175 6.12344,1.8722 9.2104,2.74851 3.26103,0.71846 6.26391,2.08294 9.41051,3.08714 2.65744,1.14624 5.61509,1.47653 8.51627,1.70991 0,0 -13.82634,8.86307 -13.82634,8.86307 v 0 c -3.00212,-0.36152 -6.00261,-0.88085 -8.77985,-2.01635 -3.03026,-1.11592 -6.00988,-2.35133 -9.197,-3.08189 -3.2882,-0.83792 -6.71742,-1.32939 -9.7124,-2.90785 0,0 14.37841,-8.40254 14.37841,-8.40254 z"
     inkscape:connector-curvature="0" />
  <path
     style="opacity:1;fill:#000000;fill-opacity:1;stroke:#140000;stroke-width:1.19307375;stroke-linecap:round;stroke-miterlimit:4;stroke-dasharray:none;stroke-opacity:1"
     id="path915"
     d="m 237.28601,274.82059 c 3.02731,1.78121 6.50983,2.81299 9.81154,4.10332 3.71198,1.04136 7.2671,2.42684 10.82882,3.81534 0,0 -13.98119,8.39037 -13.98119,8.39037 v 0 c -3.51498,-1.45584 -7.0969,-2.72252 -10.77117,-3.81655 -3.50693,-1.30931 -7.12775,-2.42075 -10.38793,-4.20917 0,0 14.49993,-8.28331 14.49993,-8.28331 z"
     inkscape:connector-curvature="0" />
  <path
     style="opacity:1;fill:#000000;fill-opacity:1;stroke:#140000;stroke-width:1.19307375;stroke-linecap:round;stroke-miterlimit:4;stroke-dasharray:none;stroke-opacity:1"
     id="path917"
     d="m 165.84939,309.5941 c 0.48914,0.49338 0.95446,1.00689 1.46742,1.48013 2.1923,2.02258 2.94163,2.40853 5.30807,4.54429 4.28338,3.86584 8.43423,7.8278 12.7854,11.63689 9.07459,8.30057 18.63587,16.12656 28.10669,24.05004 6.46946,4.9173 12.83032,9.98643 19.6952,14.45396 0,0 -13.7292,7.83784 -13.7292,7.83784 v 0 c -6.62756,-4.72788 -12.90873,-9.84715 -19.25873,-14.8723 -9.46192,-7.93677 -18.96624,-15.82526 -28.08149,-24.09133 -6.75702,-5.78634 -13.38636,-11.70574 -20.75052,-16.87401 0,0 14.45716,-8.16551 14.45716,-8.16551 z"
     inkscape:connector-curvature="0" />
  <path
     style="opacity:1;fill:#000000;fill-opacity:1;stroke:#140000;stroke-width:1.19307375;stroke-linecap:round;stroke-miterlimit:4;stroke-dasharray:none;stroke-opacity:1"
     id="path919"
     d="m 155.47238,299.34051 c 6.8068,5.51802 14.23241,10.36866 21.56123,15.29852 7.5638,5.40603 14.7349,11.3485 21.20784,17.81826 2.57227,2.571 5.08516,5.52627 7.46948,8.25197 0.96448,1.13993 1.92896,2.27986 2.89343,3.41979 0,0 -13.81548,7.38817 -13.81548,7.38817 v 0 c -0.90737,-1.16215 -1.81474,-2.3243 -2.72211,-3.48644 -2.62589,-3.26748 -4.0564,-5.18107 -7.04489,-8.30421 -6.26954,-6.55202 -13.43939,-12.40387 -21.13759,-17.55143 -7.65943,-4.91443 -15.31899,-9.82648 -22.92881,-14.79982 0,0 14.5169,-8.03481 14.5169,-8.03481 z"
     inkscape:connector-curvature="0" />
  <path
     style="opacity:1;fill:#000000;fill-opacity:1;stroke:#140000;stroke-width:1.19307375;stroke-linecap:round;stroke-miterlimit:4;stroke-dasharray:none;stroke-opacity:1"
     id="path921"
     d="m 340.03872,126.34732 c -0.12141,2.39215 -0.088,4.78847 -0.079,7.18246 0.009,2.64212 -0.0346,5.28332 -0.0215,7.92562 -0.0175,2.85411 -0.0165,5.70812 0.004,8.56222 0.0642,2.60142 -0.007,5.20138 -0.0332,7.80227 0.0586,2.99405 0.94812,5.88642 1.59905,8.80174 0.47752,2.43555 0.64017,4.89811 1.30378,7.30264 0.68224,2.05763 1.31104,4.11847 1.60918,6.25163 0.23606,0.7624 0.69573,1.42693 1.14956,2.09377 0,0 -14.74433,7.75166 -14.74433,7.75166 v 0 c -0.60326,-0.85807 -1.17046,-1.72113 -1.52477,-2.6949 -0.22093,-2.07516 -0.70889,-4.10748 -1.39622,-6.09893 -0.74549,-2.43199 -1.02195,-4.90973 -1.33782,-7.40985 -0.58901,-3.0257 -1.5309,-5.99773 -1.68751,-9.08133 -0.0272,-2.59071 -0.0974,-5.18049 -0.0332,-7.77175 0.021,-2.85555 0.0224,-5.71102 0.004,-8.56659 0.0131,-2.63573 -0.0306,-5.27034 -0.0215,-7.90588 0.009,-2.36971 0.044,-4.74195 -0.0791,-7.10973 0,0 15.28686,-7.03505 15.28686,-7.03505 z"
     inkscape:connector-curvature="0" />
  <path
     style="opacity:1;fill:#000000;fill-opacity:1;stroke:#140000;stroke-width:0;stroke-linecap:round;stroke-miterlimit:4;stroke-dasharray:none;stroke-opacity:1"
     id="path923"
     d="m 277.81104,318.90891 c 2.50581,2.38845 5.00405,4.77283 7.40986,7.24516 1.76294,1.82792 3.57784,3.61358 5.41021,5.38457 0,0 -14.38919,7.89112 -14.38919,7.89112 v 0 c -1.80833,-1.79812 -3.59239,-3.61555 -5.35285,-5.45209 -2.4184,-2.45492 -4.97146,-4.7933 -7.68558,-6.98377 0,0 14.60755,-8.08499 14.60755,-8.08499 z"
     inkscape:connector-curvature="0" />
  <path
     style="opacity:1;fill:#ffffff;fill-opacity:1;stroke:#140000;stroke-width:0;stroke-linecap:round;stroke-miterlimit:4;stroke-dasharray:none;stroke-opacity:1"
     id="path927"
     d="m 237.45227,305.70712 c 1.661,1.00256 3.12895,2.24093 4.59578,3.45921 0,0 -0.96367,0.53844 -0.96367,0.53844 v 0 c -1.4609,-1.21196 -2.91983,-2.45063 -4.58872,-3.42916 0,0 0.95661,-0.56849 0.95661,-0.56849 z"
     inkscape:connector-curvature="0" />
</svg>
