<?xml version="1.0" encoding="UTF-8" standalone="no"?>
<!-- Generator: Adobe Illustrator 19.1.0, SVG Export Plug-In . SVG Version: 6.00 Build 0)  -->

<svg
   xmlns:dc="http://purl.org/dc/elements/1.1/"
   xmlns:cc="http://creativecommons.org/ns#"
   xmlns:rdf="http://www.w3.org/1999/02/22-rdf-syntax-ns#"
   xmlns:svg="http://www.w3.org/2000/svg"
   xmlns="http://www.w3.org/2000/svg"
   xmlns:sodipodi="http://sodipodi.sourceforge.net/DTD/sodipodi-0.dtd"
   xmlns:inkscape="http://www.inkscape.org/namespaces/inkscape"
   version="1.1"
   id="Capa_1"
   x="0px"
   y="0px"
   viewBox="0 0 477.216 477.216"
   style="enable-background:new 0 0 477.216 477.216;"
   xml:space="preserve"
   sodipodi:docname="music-btn.svg"
   inkscape:version="0.92.2 (5c3e80d, 2017-08-06)"><metadata
     id="metadata41"><rdf:RDF><cc:Work
         rdf:about=""><dc:format>image/svg+xml</dc:format><dc:type
           rdf:resource="http://purl.org/dc/dcmitype/StillImage" /></cc:Work></rdf:RDF></metadata><defs
     id="defs39" /><sodipodi:namedview
     pagecolor="#ffffff"
     bordercolor="#666666"
     borderopacity="1"
     objecttolerance="10"
     gridtolerance="10"
     guidetolerance="10"
     inkscape:pageopacity="0"
     inkscape:pageshadow="2"
     inkscape:window-width="836"
     inkscape:window-height="480"
     id="namedview37"
     showgrid="false"
     inkscape:zoom="0.49453497"
     inkscape:cx="242.65221"
     inkscape:cy="230.51959"
     inkscape:window-x="0"
     inkscape:window-y="27"
     inkscape:window-maximized="0"
     inkscape:current-layer="Capa_1" /><g
     id="g4"><path
       id="path2"
       d="m 453.858,105.116 v -91.6 c 0,-4.3 -2.1,-8.4 -5.5,-10.9 -3.5,-2.5 -8,-3.3 -12.1,-2 l -272.9,86.7 c -5.6,1.8 -9.4,7 -9.4,12.9 v 91.7 0.1 175.3 c -14.3,-9.9 -32.6,-15.3 -51.8,-15.3 -20.3,0 -39.6,6.1 -54.3,17.1 -15.8,11.9 -24.5,28 -24.5,45.5 0,17.5 8.7,33.6 24.5,45.5 14.7,11 33.9,17.1 54.3,17.1 20.4,0 39.6,-6.1 54.3,-17.1 15.8,-11.9 24.5,-28 24.5,-45.5 v -212.8 l 245.9,-78.2 v 156.6 c -14.3,-9.9 -32.6,-15.3 -51.8,-15.3 -20.3,0 -39.6,6.1 -54.3,17.1 -15.8,11.9 -24.5,28 -24.5,45.5 0,17.5 8.7,33.6 24.5,45.5 14.7,11 33.9,17.1 54.3,17.1 20.4,0 39.6,-6.1 54.3,-17.1 15.8,-11.9 24.5,-28 24.5,-45.5 v -222.3 c 0,-0.1 0,-0.1 0,-0.1 z m -351.7,345.1 c -28.1,0 -51.8,-16.3 -51.8,-35.6 0,-19.3 23.7,-35.6 51.8,-35.6 28.1,0 51.8,16.3 51.8,35.6 0,19.4 -23.7,35.6 -51.8,35.6 z m 78.8,-276.8 v -63.4 l 245.9,-78.1 v 63.4 z m 194.2,189.7 c -28.1,0 -51.8,-16.3 -51.8,-35.6 0,-19.3 23.7,-35.6 51.8,-35.6 28.1,0 51.8,16.3 51.8,35.6 -0.1,19.3 -23.8,35.6 -51.8,35.6 z" /></g><g
     id="g6" /><g
     id="g8" /><g
     id="g10" /><g
     id="g12" /><g
     id="g14" /><g
     id="g16" /><g
     id="g18" /><g
     id="g20" /><g
     id="g22" /><g
     id="g24" /><g
     id="g26" /><g
     id="g28" /><g
     id="g30" /><g
     id="g32" /><g
     id="g34" /></svg>