<?xml version="1.0" encoding="UTF-8" standalone="no"?>
<!-- Generator: Adobe Illustrator 19.0.0, SVG Export Plug-In . SVG Version: 6.00 Build 0)  -->

<svg
   xmlns:dc="http://purl.org/dc/elements/1.1/"
   xmlns:cc="http://creativecommons.org/ns#"
   xmlns:rdf="http://www.w3.org/1999/02/22-rdf-syntax-ns#"
   xmlns:svg="http://www.w3.org/2000/svg"
   xmlns="http://www.w3.org/2000/svg"
   xmlns:sodipodi="http://sodipodi.sourceforge.net/DTD/sodipodi-0.dtd"
   xmlns:inkscape="http://www.inkscape.org/namespaces/inkscape"
   version="1.1"
   id="Capa_1"
   x="0px"
   y="0px"
   viewBox="0 0 150 150"
   xml:space="preserve"
   sodipodi:docname="partita-btn.svg"
   inkscape:version="0.92.2 (5c3e80d, 2017-08-06)"
   width="150"
   height="150"><metadata
     id="metadata55"><rdf:RDF><cc:Work
         rdf:about=""><dc:format>image/svg+xml</dc:format><dc:type
           rdf:resource="http://purl.org/dc/dcmitype/StillImage" /><dc:title></dc:title></cc:Work></rdf:RDF></metadata><defs
     id="defs53" /><sodipodi:namedview
     pagecolor="#ffffff"
     bordercolor="#666666"
     borderopacity="1"
     objecttolerance="10"
     gridtolerance="10"
     guidetolerance="10"
     inkscape:pageopacity="0"
     inkscape:pageshadow="2"
     inkscape:window-width="1920"
     inkscape:window-height="1016"
     id="namedview51"
     showgrid="false"
     inkscape:zoom="5.3667839"
     inkscape:cx="-36.710549"
     inkscape:cy="74.066697"
     inkscape:window-x="0"
     inkscape:window-y="27"
     inkscape:window-maximized="1"
     inkscape:current-layer="text816"
     fit-margin-top="0"
     fit-margin-left="0"
     fit-margin-right="0"
     fit-margin-bottom="0" /><g
     id="g20"
     transform="translate(-30.959981,-363.57207)" /><g
     id="g22"
     transform="translate(-30.959981,-363.57207)" /><g
     id="g24"
     transform="translate(-30.959981,-363.57207)" /><g
     id="g26"
     transform="translate(-30.959981,-363.57207)" /><g
     id="g28"
     transform="translate(-30.959981,-363.57207)" /><g
     id="g30"
     transform="translate(-30.959981,-363.57207)" /><g
     id="g32"
     transform="translate(-30.959981,-363.57207)" /><g
     id="g34"
     transform="translate(-30.959981,-363.57207)" /><g
     id="g36"
     transform="translate(-30.959981,-363.57207)" /><g
     id="g38"
     transform="translate(-30.959981,-363.57207)" /><g
     id="g40"
     transform="translate(-30.959981,-363.57207)" /><g
     id="g42"
     transform="translate(-30.959981,-363.57207)" /><g
     id="g44"
     transform="translate(-30.959981,-363.57207)" /><g
     id="g46"
     transform="translate(-30.959981,-363.57207)" /><g
     id="g48"
     transform="translate(-30.959981,-363.57207)" /><g
     transform="matrix(51.138077,0,0,51.138077,-3384.8676,-4474.7633)"
     id="layer1"
     inkscape:label="Layer 1"
     style="fill:#000000;fill-opacity:1;stroke-width:0.0586647;stroke-miterlimit:4;stroke-dasharray:none"><g
       aria-label="P"
       transform="matrix(1.176926,-0.02395552,0.01728731,0.84931923,0,0)"
       style="font-style:normal;font-weight:normal;font-size:3.5616951px;line-height:1.25;font-family:sans-serif;letter-spacing:0px;word-spacing:0px;opacity:1;fill:#000000;fill-opacity:1;stroke:#000000;stroke-width:0.03309207;stroke-miterlimit:4;stroke-dasharray:none;stroke-opacity:1"
       id="text816"><path
         id="path829"
         style="font-style:normal;font-variant:normal;font-weight:normal;font-stretch:normal;font-family:'Australian Script';-inkscape-font-specification:'Australian Script';fill:#000000;fill-opacity:1;stroke:#000000;stroke-width:0.03309207;stroke-miterlimit:4;stroke-dasharray:none;stroke-opacity:1"
         d="m 55.833949,106.46179 q -0.01069,-0.0107 0,-0.0107 -0.0071,-0.14959 -0.01425,-0.29918 -0.0036,-0.14959 -0.01069,-0.30987 -0.103289,-0.007 -0.199455,-0.0392 -0.09617,-0.0356 -0.170962,-0.0962 -0.0748,-0.0641 -0.121097,-0.1496 -0.04274,-0.089 -0.04274,-0.19945 0,-0.24576 0.12466,-0.4096 0.128221,-0.1674 0.316991,-0.24575 0.192331,-0.0784 0.413156,-0.0677 0.224387,0.0107 0.413157,0.12109 0.192331,0.10685 0.316991,0.31343 0.128221,0.20302 0.128221,0.51289 0,0.19589 -0.06767,0.38822 -0.06411,0.19233 -0.192332,0.33124 -0.128221,0.1389 -0.320553,0.20301 -0.188769,0.0641 -0.438088,0.007 0.01069,0.17096 0.01781,0.33124 0.01069,0.16027 0.01069,0.30986 0,0.26357 -0.08548,0.44165 -0.08192,0.17809 -0.206578,0.27782 -0.12466,0.10329 -0.274251,0.12822 -0.146029,0.0249 -0.270689,-0.0178 -0.124659,-0.0392 -0.206578,-0.14959 -0.08548,-0.10685 -0.08548,-0.27425 0,-0.0606 0.02493,-0.13179 0.02493,-0.0712 0.0748,-0.13178 0.0463,-0.0606 0.117536,-0.0997 0.07123,-0.0427 0.163838,-0.0427 0.124659,0 0.181646,0.0641 0.05699,0.0641 0.05699,0.13891 0,0.0748 -0.05342,0.13534 -0.05343,0.0641 -0.142468,0.0606 l -0.0071,-0.032 q 0.07836,0.004 0.121097,-0.0463 0.0463,-0.0499 0.0463,-0.11042 0.0036,-0.0641 -0.04274,-0.11753 -0.0463,-0.0534 -0.14603,-0.0534 -0.08904,0 -0.153153,0.0356 -0.06411,0.0356 -0.10685,0.0926 -0.04274,0.0534 -0.06055,0.11754 -0.02137,0.0641 -0.02137,0.11754 0,0.15671 0.07123,0.25288 0.06767,0.0962 0.174523,0.13178 0.103289,0.0392 0.224386,0.0142 0.12466,-0.0249 0.227949,-0.11397 0.106851,-0.0855 0.174523,-0.23507 0.07123,-0.14959 0.07123,-0.36329 0,-0.18165 -0.01068,-0.37398 -0.01069,-0.19233 -0.02137,-0.40604 z m -0.512885,-1.10412 q 0,0.10329 0.03918,0.18521 0.04274,0.0819 0.110413,0.14247 0.06767,0.057 0.156714,0.089 0.08904,0.032 0.181647,0.0392 -0.0036,-0.0712 -0.0036,-0.13891 0,-0.0677 0,-0.13891 0,-0.19589 0.0463,-0.31699 0.0463,-0.12109 0.113974,-0.17808 0.06767,-0.057 0.14603,-0.057 0.08192,0 0.149591,0.0463 0.06767,0.0427 0.113974,0.12822 0.0463,0.0855 0.0463,0.1959 0,0.11753 -0.04274,0.20658 -0.03918,0.0855 -0.106851,0.14603 -0.06767,0.0605 -0.156715,0.0962 -0.08904,0.0321 -0.185208,0.0392 0.0071,0.16028 0.01781,0.32055 0.01068,0.15672 0.02137,0.30987 0.217263,0.057 0.384663,0.004 0.170961,-0.057 0.284936,-0.18521 0.117536,-0.12822 0.178084,-0.30986 0.06055,-0.18521 0.06055,-0.38823 0,-0.2885 -0.117536,-0.47727 -0.113974,-0.19233 -0.288497,-0.29206 -0.170961,-0.0997 -0.373978,-0.11041 -0.199455,-0.0107 -0.373978,0.0606 -0.170961,0.0712 -0.288497,0.22083 -0.113975,0.14603 -0.113975,0.36329 z m 0.598365,0.0712 q 0,0.0962 0,0.19233 0.0036,0.0962 0.0071,0.18877 0.08904,-0.007 0.170961,-0.0392 0.08192,-0.0321 0.146029,-0.0891 0.06411,-0.057 0.09973,-0.13534 0.03918,-0.0819 0.03918,-0.18877 0,-0.14603 -0.0748,-0.23507 -0.07123,-0.0926 -0.156715,-0.0997 -0.08548,-0.007 -0.160276,0.089 -0.07123,0.0926 -0.07123,0.31699 z" /></g></g></svg>