<?xml version="1.0" encoding="UTF-8" standalone="no"?>
<!-- Generator: Adobe Illustrator 16.0.0, SVG Export Plug-In . SVG Version: 6.00 Build 0)  -->

<svg
   xmlns:dc="http://purl.org/dc/elements/1.1/"
   xmlns:cc="http://creativecommons.org/ns#"
   xmlns:rdf="http://www.w3.org/1999/02/22-rdf-syntax-ns#"
   xmlns:svg="http://www.w3.org/2000/svg"
   xmlns="http://www.w3.org/2000/svg"
   xmlns:sodipodi="http://sodipodi.sourceforge.net/DTD/sodipodi-0.dtd"
   xmlns:inkscape="http://www.inkscape.org/namespaces/inkscape"
   version="1.1"
   id="Capa_1"
   x="0px"
   y="0px"
   width="150"
   height="150"
   viewBox="0 0 149.99999 150"
   xml:space="preserve"
   sodipodi:docname="projects-btn.svg"
   inkscape:version="0.92.2 (5c3e80d, 2017-08-06)"><metadata
     id="metadata47"><rdf:RDF><cc:Work
         rdf:about=""><dc:format>image/svg+xml</dc:format><dc:type
           rdf:resource="http://purl.org/dc/dcmitype/StillImage" /><dc:title /></cc:Work></rdf:RDF></metadata><defs
     id="defs45" /><sodipodi:namedview
     pagecolor="#ffffff"
     bordercolor="#666666"
     borderopacity="1"
     objecttolerance="10"
     gridtolerance="10"
     guidetolerance="10"
     inkscape:pageopacity="0"
     inkscape:pageshadow="2"
     inkscape:window-width="1920"
     inkscape:window-height="1016"
     id="namedview43"
     showgrid="false"
     inkscape:zoom="5.4066667"
     inkscape:cx="38.193588"
     inkscape:cy="74.260173"
     inkscape:window-x="0"
     inkscape:window-y="27"
     inkscape:window-maximized="1"
     inkscape:current-layer="Capa_1" /><g
     id="g10"
     transform="matrix(0.28672899,0,0,0.29238945,0,-1.3795547)"><g
       id="g8"><path
         id="path6"
         d="M 519.614,254.663 386.567,121.619 c -1.902,-1.902 -4.093,-2.857 -6.563,-2.857 -2.478,0 -4.661,0.955 -6.57,2.857 l -14.271,14.275 c -1.902,1.903 -2.851,4.09 -2.851,6.567 0,2.477 0.948,4.665 2.851,6.567 l 112.206,112.204 -112.206,112.21 c -1.902,1.902 -2.851,4.093 -2.851,6.563 0,2.478 0.948,4.668 2.851,6.57 l 14.271,14.268 c 1.909,1.906 4.093,2.854 6.57,2.854 2.471,0 4.661,-0.951 6.563,-2.854 L 519.614,267.8 c 1.903,-1.902 2.854,-4.096 2.854,-6.57 0,-2.475 -0.951,-4.665 -2.854,-6.567 z M 166.167,142.465 c 0,-2.474 -0.953,-4.665 -2.856,-6.567 l -14.277,-14.276 c -1.903,-1.903 -4.093,-2.857 -6.567,-2.857 -2.474,0 -4.665,0.955 -6.567,2.857 L 2.856,254.666 C 0.95,256.569 0,258.759 0,261.233 c 0,2.474 0.953,4.664 2.856,6.566 l 133.043,133.044 c 1.902,1.906 4.089,2.854 6.567,2.854 2.478,0 4.665,-0.951 6.567,-2.854 l 14.277,-14.268 c 1.903,-1.902 2.856,-4.093 2.856,-6.57 0,-2.471 -0.953,-4.661 -2.856,-6.563 L 51.107,261.233 163.311,149.032 c 1.906,-1.902 2.856,-4.093 2.856,-6.567 z M 325.762,70.513 308.056,65.659 c -2.279,-0.76 -4.524,-0.521 -6.707,0.715 -2.19,1.237 -3.669,3.094 -4.429,5.568 L 190.426,440.53 c -0.76,2.475 -0.522,4.809 0.715,6.995 1.237,2.19 3.09,3.665 5.568,4.425 l 17.701,4.856 c 2.284,0.766 4.521,0.526 6.71,-0.712 2.19,-1.243 3.666,-3.094 4.425,-5.564 L 332.042,81.936 c 0.759,-2.474 0.523,-4.808 -0.716,-6.999 -1.238,-2.19 -3.089,-3.665 -5.564,-4.424 z" /></g></g><g
     id="g12"
     transform="translate(0,-372.46899)" /><g
     id="g14"
     transform="translate(0,-372.46899)" /><g
     id="g16"
     transform="translate(0,-372.46899)" /><g
     id="g18"
     transform="translate(0,-372.46899)" /><g
     id="g20"
     transform="translate(0,-372.46899)" /><g
     id="g22"
     transform="translate(0,-372.46899)" /><g
     id="g24"
     transform="translate(0,-372.46899)" /><g
     id="g26"
     transform="translate(0,-372.46899)" /><g
     id="g28"
     transform="translate(0,-372.46899)" /><g
     id="g30"
     transform="translate(0,-372.46899)" /><g
     id="g32"
     transform="translate(0,-372.46899)" /><g
     id="g34"
     transform="translate(0,-372.46899)" /><g
     id="g36"
     transform="translate(0,-372.46899)" /><g
     id="g38"
     transform="translate(0,-372.46899)" /><g
     id="g40"
     transform="translate(0,-372.46899)" /></svg>